<svg width="572" height="437" viewBox="0 0 572 437" fill="none" xmlns="http://www.w3.org/2000/svg">
<path d="M83.7639 391.985C195.455 451.841 376.545 451.841 488.236 391.985C599.927 332.129 599.915 235.096 488.236 175.239C376.557 115.383 195.455 115.383 83.7639 175.239C-27.9275 235.096 -27.9151 332.141 83.7639 391.985Z" fill="#F5F5F5"/>
<path d="M120.113 4.69267L111.461 9.63641C111.461 9.25327 111.535 8.87013 111.535 8.49935V6.02748C111.535 1.60284 108.421 -0.152198 104.589 2.02305C102.936 3.03223 101.523 4.39047 100.449 6.00276C99.8186 0.428693 95.5052 -1.64768 90.1413 1.41744C84.4065 4.72975 79.7471 12.788 79.7471 19.425V23.1328C79.7294 24.6458 80.0592 26.1426 80.7111 27.508L73.5797 31.6237C72.4581 32.3553 71.5246 33.3407 70.8546 34.5002C70.1847 35.6597 69.7972 36.9606 69.7236 38.2977C69.7236 40.7696 71.4539 41.7583 73.5797 40.5224L120.113 13.5914C121.235 12.8605 122.169 11.8753 122.839 10.7156C123.509 9.556 123.896 8.25467 123.969 6.91735C123.994 4.4702 122.263 3.46909 120.113 4.69267Z" fill="#EBEBEB"/>
<path d="M156.907 29.7328L150.418 33.4406C150.436 33.1525 150.436 32.8636 150.418 32.5755V30.7339C150.418 27.3969 148.07 26.0374 145.178 27.7059C143.934 28.4734 142.868 29.4973 142.051 30.7092C141.581 26.507 138.281 24.9498 134.277 27.261C131.989 28.7479 130.086 30.7547 128.722 33.1174C127.358 35.4801 126.572 38.1319 126.428 40.8562V43.6618C126.404 44.7857 126.632 45.9007 127.096 46.9247L121.707 50.0269C120.861 50.5804 120.157 51.3253 119.653 52.2014C119.148 53.0774 118.857 54.06 118.803 55.0695C118.803 56.9234 120.1 57.6773 121.707 56.7504L156.845 36.4563C157.691 35.9055 158.394 35.1628 158.899 34.2888C159.404 33.4147 159.695 32.4339 159.749 31.4261C159.811 29.5598 158.513 28.8059 156.907 29.7328Z" fill="#EBEBEB"/>
<path d="M504.18 63.4367L497.691 67.1445C497.709 66.8564 497.709 66.5675 497.691 66.2794V64.4007C497.691 61.0637 495.343 59.7042 492.451 61.3851C491.201 62.1454 490.134 63.1706 489.324 64.3884C488.854 60.1862 485.616 58.6166 481.55 60.9278C479.265 62.4161 477.364 64.4234 476.002 66.7861C474.64 69.1487 473.856 71.7998 473.714 74.523V77.3286C473.682 78.4518 473.906 79.5675 474.369 80.5915L468.992 83.6937C468.145 84.2465 467.439 84.9911 466.933 85.867C466.426 86.743 466.132 87.7259 466.076 88.7363C466.076 90.5902 467.386 91.3441 468.992 90.4172L504.13 70.1231C504.976 69.5723 505.68 68.8296 506.184 67.9556C506.689 67.0815 506.98 66.1007 507.035 65.0929C507.084 63.2637 505.786 62.5098 504.18 63.4367Z" fill="#EBEBEB"/>
<path d="M116.837 183.78L20.4469 239.434V244.068L108.804 295.075L205.194 239.434V234.799L116.837 183.78Z" fill="#69D2E7"/>
<path opacity="0.15" d="M20.4469 239.434L108.804 290.441V295.075L20.4469 244.068V239.434Z" fill="black"/>
<path opacity="0.1" d="M108.804 290.441L205.195 234.799V239.434L108.804 295.075V290.441Z" fill="black"/>
<path d="M196.618 218.065L192.809 225.57L193.426 225.883L197.235 218.378L196.618 218.065Z" fill="#455A64"/>
<path d="M189.578 217.476L188.989 217.84L192.704 223.841L193.292 223.477L189.578 217.476Z" fill="#455A64"/>
<path d="M193.7 216.779V234.873C193.698 234.923 193.682 234.972 193.653 235.013C193.625 235.055 193.586 235.087 193.54 235.108C193.414 235.175 193.274 235.21 193.132 235.21C192.99 235.21 192.849 235.175 192.724 235.108C192.676 235.089 192.634 235.057 192.603 235.016C192.573 234.974 192.554 234.925 192.551 234.873V216.779H193.7Z" fill="#455A64"/>
<path d="M207.382 211.155C207.382 212.818 206.889 214.442 205.966 215.825C205.042 217.207 203.73 218.284 202.194 218.92C200.658 219.556 198.968 219.722 197.338 219.398C195.708 219.074 194.21 218.273 193.035 217.098C191.86 215.923 191.059 214.425 190.735 212.795C190.411 211.165 190.577 209.475 191.213 207.939C191.849 206.403 192.926 205.091 194.309 204.167C195.691 203.244 197.316 202.751 198.978 202.751C201.206 202.754 203.341 203.641 204.917 205.216C206.492 206.792 207.379 208.927 207.382 211.155Z" fill="#69D2E7"/>
<path opacity="0.2" d="M201.61 209.005C202.698 205.594 203.847 204.259 203.118 203.839C201.726 203.049 200.138 202.673 198.54 202.755C196.942 202.836 195.4 203.373 194.096 204.301C192.793 205.229 191.781 206.509 191.18 207.993C190.579 209.476 190.415 211.1 190.705 212.673C190.995 214.247 191.729 215.705 192.82 216.876C193.911 218.047 195.313 218.882 196.862 219.284C198.411 219.685 200.042 219.636 201.565 219.142C203.087 218.648 204.436 217.729 205.454 216.495C202.92 217.224 200.201 213.43 201.61 209.005Z" fill="black"/>
<path d="M191.649 213.528C191.649 214.697 191.302 215.839 190.653 216.811C190.004 217.782 189.081 218.539 188.002 218.986C186.922 219.434 185.734 219.551 184.588 219.323C183.442 219.095 182.39 218.532 181.563 217.706C180.737 216.88 180.175 215.827 179.947 214.681C179.719 213.535 179.836 212.347 180.283 211.268C180.73 210.188 181.487 209.265 182.459 208.616C183.43 207.967 184.572 207.621 185.741 207.621C187.308 207.621 188.81 208.243 189.918 209.351C191.026 210.459 191.649 211.962 191.649 213.528Z" fill="#69D2E7"/>
<path opacity="0.2" d="M185.741 207.621C184.501 207.62 183.294 208.014 182.293 208.745C182.132 212.342 185.197 215.864 184.332 217.051C183.467 218.237 181.378 217.508 180.624 216.495C181.145 217.391 181.892 218.135 182.791 218.651C183.69 219.167 184.709 219.438 185.745 219.436C186.782 219.434 187.8 219.159 188.696 218.639C189.593 218.119 190.337 217.373 190.854 216.474C191.371 215.575 191.642 214.557 191.641 213.52C191.64 212.483 191.365 211.465 190.846 210.568C190.327 209.671 189.58 208.927 188.682 208.409C187.784 207.892 186.765 207.62 185.729 207.621H185.741Z" fill="black"/>
<path d="M193.132 218.003C199.118 218.003 203.971 213.15 203.971 207.163C203.971 201.177 199.118 196.324 193.132 196.324C187.145 196.324 182.293 201.177 182.293 207.163C182.293 213.15 187.145 218.003 193.132 218.003Z" fill="#69D2E7"/>
<path opacity="0.1" d="M203.674 209.635C203.265 211.39 202.425 213.015 201.229 214.364C200.034 215.712 198.521 216.742 196.828 217.358C195.135 217.975 193.314 218.16 191.532 217.896C189.749 217.632 188.06 216.928 186.618 215.847C185.176 214.767 184.026 213.343 183.273 211.707C182.519 210.07 182.185 208.271 182.302 206.472C182.418 204.674 182.982 202.933 183.94 201.407C184.899 199.881 186.223 198.619 187.792 197.733C186.877 198.273 186.044 198.944 185.321 199.723C184.782 202.04 185.021 204.47 186.001 206.637C186.982 208.805 188.649 210.589 190.745 211.714C192.84 212.839 195.248 213.243 197.597 212.863C199.945 212.483 202.102 211.34 203.736 209.61L203.674 209.635Z" fill="black"/>
<path d="M36.0233 222.683L32.214 230.189L32.8312 230.502L36.6405 222.997L36.0233 222.683Z" fill="#455A64"/>
<path d="M28.9534 222.085L28.3649 222.449L32.0795 228.45L32.668 228.085L28.9534 222.085Z" fill="#455A64"/>
<path d="M33.0905 221.389V239.483C33.0855 239.534 33.0668 239.583 33.0364 239.624C33.0059 239.666 32.9648 239.698 32.9174 239.718C32.7902 239.779 32.6508 239.811 32.5096 239.811C32.3683 239.811 32.2289 239.779 32.1017 239.718C32.0559 239.697 32.0166 239.665 31.9882 239.623C31.9598 239.582 31.9435 239.533 31.941 239.483V221.389H33.0905Z" fill="#455A64"/>
<path d="M46.7725 215.753C46.7725 217.415 46.2796 219.04 45.3561 220.422C44.4326 221.805 43.12 222.882 41.5843 223.518C40.0486 224.154 38.3588 224.32 36.7285 223.996C35.0982 223.672 33.6007 222.871 32.4253 221.696C31.25 220.521 30.4495 219.023 30.1252 217.393C29.801 215.763 29.9674 214.073 30.6035 212.537C31.2396 211.001 32.3168 209.689 33.6989 208.765C35.081 207.842 36.7059 207.349 38.3681 207.349C40.5971 207.349 42.7348 208.234 44.3109 209.81C45.887 211.387 46.7725 213.524 46.7725 215.753Z" fill="#69D2E7"/>
<path opacity="0.2" d="M41.0129 213.603C42.1005 210.191 43.2499 208.857 42.5207 208.449C41.2614 207.724 39.8332 207.345 38.3804 207.349C36.9643 207.348 35.571 207.705 34.3298 208.387C33.0887 209.069 32.0399 210.053 31.281 211.249C30.5221 212.444 30.0775 213.812 29.9886 215.226C29.8997 216.639 30.1694 218.052 30.7726 219.333C31.3758 220.614 32.2929 221.722 33.4389 222.554C34.5848 223.386 35.9224 223.915 37.3274 224.092C38.7324 224.268 40.1594 224.087 41.4756 223.565C42.7919 223.043 43.9549 222.197 44.8567 221.105C42.3601 221.834 39.5916 218.027 41.0129 213.603Z" fill="black"/>
<path d="M31.0389 218.139C31.0389 219.307 30.6924 220.449 30.0433 221.421C29.3941 222.392 28.4715 223.15 27.392 223.597C26.3125 224.044 25.1246 224.161 23.9786 223.933C22.8326 223.705 21.78 223.142 20.9537 222.316C20.1275 221.49 19.5649 220.437 19.3369 219.291C19.109 218.145 19.2259 216.957 19.6731 215.878C20.1202 214.798 20.8775 213.876 21.849 213.226C22.8205 212.577 23.9627 212.231 25.1312 212.231C25.9074 212.229 26.6764 212.381 27.3939 212.677C28.1114 212.974 28.7633 213.409 29.3122 213.958C29.8611 214.506 30.2962 215.158 30.5925 215.876C30.8889 216.593 31.0406 217.362 31.0389 218.139Z" fill="#69D2E7"/>
<path opacity="0.2" d="M25.1312 212.231C23.8928 212.226 22.6851 212.615 21.6829 213.343C21.5222 216.952 24.575 220.474 23.7222 221.648C22.8694 222.822 20.756 222.106 20.0144 221.105C20.5349 222.001 21.2821 222.745 22.181 223.261C23.0799 223.777 24.0988 224.048 25.1354 224.046C26.172 224.044 27.1899 223.769 28.0867 223.249C28.9835 222.729 29.7277 221.982 30.2445 221.084C30.7614 220.185 31.0327 219.167 31.0313 218.13C31.0298 217.093 30.7556 216.075 30.2363 215.178C29.7169 214.281 28.9706 213.536 28.0723 213.019C27.174 212.502 26.1554 212.23 25.1188 212.231H25.1312Z" fill="black"/>
<path d="M32.5096 222.6C38.4959 222.6 43.3487 217.747 43.3487 211.761C43.3487 205.775 38.4959 200.922 32.5096 200.922C26.5233 200.922 21.6704 205.775 21.6704 211.761C21.6704 217.747 26.5233 222.6 32.5096 222.6Z" fill="#69D2E7"/>
<path opacity="0.1" d="M43.0521 214.245C42.6382 215.995 41.7952 217.614 40.599 218.956C39.4028 220.298 37.8912 221.322 36.2007 221.933C34.5101 222.545 32.6937 222.727 30.9156 222.461C29.1375 222.195 27.4535 221.491 26.0157 220.411C24.578 219.332 23.4316 217.911 22.6802 216.278C21.9288 214.644 21.596 212.85 21.7118 211.056C21.8276 209.261 22.3884 207.524 23.3435 206.001C24.2987 204.478 25.6181 203.217 27.1827 202.331C26.2477 202.87 25.3945 203.54 24.6491 204.321C24.1148 206.635 24.3566 209.061 25.3369 211.224C26.3173 213.388 27.9819 215.169 30.0743 216.293C32.1666 217.417 34.5706 217.822 36.9158 217.446C39.261 217.069 41.4172 215.931 43.0521 214.208V214.245Z" fill="black"/>
<path d="M138.714 259.258L152.173 251.496L164.248 258.467L150.801 266.216L138.714 259.258Z" fill="#F0F0F0"/>
<path d="M44.56 239.434L44.5476 197.696L108.816 234.787V276.537L44.56 239.434Z" fill="#F0F0F0"/>
<path d="M44.5476 214.258L108.816 251.373V234.787L44.5476 197.696V214.258Z" fill="#E0E0E0"/>
<path d="M181.094 234.787V194.211L156.993 188.414V183.78L108.816 234.787V276.536L181.094 234.787Z" fill="#FAFAFA"/>
<path d="M156.993 183.78V188.414L185.11 195.373V190.738L156.993 183.78Z" fill="#263238"/>
<path d="M120.867 153.635L185.11 190.738L156.993 183.78L92.7367 146.677L120.867 153.635Z" fill="#37474F"/>
<path d="M104.787 241.769L157.005 183.779V179.145L100.77 244.068L104.787 241.769Z" fill="#37474F"/>
<path d="M92.7492 142.042L157.005 179.145L100.869 244.13L36.5142 206.966L92.7492 142.042Z" fill="#455A64"/>
<path d="M72.5911 202.158L80.6864 206.83V218.559L72.5911 213.924V202.158Z" fill="#263238"/>
<path d="M80.6864 206.83L88.7694 202.158V209.289L80.6864 218.559V206.83Z" fill="#37474F"/>
<path d="M80.6864 194.211L71.7506 199.364V201.7L80.6864 206.829L89.6099 201.7V199.364L80.6864 194.211Z" fill="#F5F5F5"/>
<path d="M71.7506 201.701L80.6864 206.83V204.494L71.7506 199.365V201.701Z" fill="#E0E0E0"/>
<path d="M89.6099 201.701L80.6864 206.83V204.494L89.6099 199.365V201.701Z" fill="#EBEBEB"/>
<path d="M74.7539 199.365L80.6864 195.941L86.6189 199.365L80.6864 202.776L74.7539 199.365Z" fill="#69D2E7"/>
<path d="M80.6864 195.941V202.776L74.7539 199.365L80.6864 195.941Z" fill="#37474F"/>
<path d="M80.6864 195.941L86.6189 199.365L80.6864 202.776V195.941Z" fill="#263238"/>
<path d="M114.02 245.7L132.101 235.269V249.185L114.02 259.616V245.7Z" fill="#455A64"/>
<path d="M131.298 248.716V235.738L114.02 245.7V258.69L131.298 248.716Z" fill="#E0E0E0"/>
<path d="M132.101 249.185L131.298 248.715L114.02 258.689V259.616L132.101 249.185Z" fill="#37474F"/>
<path d="M114.02 252.658L132.101 242.227V241.288L114.02 251.719V252.658Z" fill="#455A64"/>
<path d="M158.204 220.178L176.274 209.746V223.663L158.204 234.094V220.178Z" fill="#455A64"/>
<path d="M175.47 223.193V210.216L158.204 220.178V233.167L175.47 223.193Z" fill="#E0E0E0"/>
<path d="M176.274 223.663L175.47 223.193L158.204 233.167V234.094L176.274 223.663Z" fill="#37474F"/>
<path d="M158.204 227.136L176.274 216.705V215.765L158.204 226.209V227.136Z" fill="#455A64"/>
<path d="M138.714 259.258V231.437L152.173 223.675V251.496L138.714 259.258Z" fill="#37474F"/>
<path d="M151.703 251.138V223.948L138.714 231.437V258.628L151.703 251.138Z" fill="#455A64"/>
<path d="M152.173 223.675L151.703 223.947V251.138L152.173 251.496V223.675Z" fill="#263238"/>
<path d="M94.1457 240.249L84.7031 234.799V248.703L94.1457 254.154V240.249Z" fill="#455A64"/>
<path d="M85.5066 248.233V235.256L94.1458 240.249V253.227L85.5066 248.233Z" fill="#FAFAFA"/>
<path d="M84.7031 248.703L85.5065 248.234L94.1457 253.227V254.154L84.7031 248.703Z" fill="#37474F"/>
<path d="M94.1457 247.158L84.7031 241.745V240.806L94.1457 246.219V247.158Z" fill="#455A64"/>
<path d="M85.5066 235.256L94.1458 240.249V242.931L85.5066 237.975V235.256Z" fill="#F5F5F5"/>
<path d="M66.0282 224.009L56.5857 218.559V232.475L66.0282 237.926V224.009Z" fill="#455A64"/>
<path d="M57.4014 232.006V219.028L66.0282 224.009V236.986L57.4014 232.006Z" fill="#FAFAFA"/>
<path d="M56.5857 232.475L57.4014 232.005L66.0282 236.986V237.926L56.5857 232.475Z" fill="#37474F"/>
<path d="M66.0282 230.918L56.5857 225.504V224.565L66.0282 229.979V230.918Z" fill="#455A64"/>
<path d="M57.4014 219.028L66.0282 224.009V226.58L57.4014 221.636V219.028Z" fill="#F5F5F5"/>
<path d="M451.17 179.726L354.78 235.38V240.014L451.17 295.669L547.573 240.014V235.38L451.17 179.726Z" fill="#69D2E7"/>
<path opacity="0.15" d="M354.78 235.38L451.183 291.034L451.17 295.669L354.78 240.015V235.38Z" fill="black"/>
<path opacity="0.1" d="M451.183 291.034L547.573 235.38V240.015L451.17 295.669L451.183 291.034Z" fill="black"/>
<path d="M539.264 218.797L535.454 226.302L536.071 226.616L539.881 219.11L539.264 218.797Z" fill="#455A64"/>
<path d="M533.19 216.098L532.602 216.465L536.342 222.464L536.931 222.097L533.19 216.098Z" fill="#455A64"/>
<path d="M536.363 217.521V235.615C536.361 235.665 536.344 235.713 536.316 235.755C536.288 235.796 536.248 235.829 536.203 235.849C536.077 235.916 535.937 235.952 535.795 235.952C535.652 235.952 535.512 235.916 535.387 235.849C535.339 235.83 535.298 235.797 535.268 235.756C535.237 235.715 535.219 235.666 535.214 235.615V217.521H536.363Z" fill="#455A64"/>
<path d="M550.045 211.897C550.045 213.559 549.552 215.184 548.629 216.566C547.705 217.948 546.393 219.026 544.857 219.662C543.321 220.298 541.631 220.464 540.001 220.14C538.371 219.816 536.873 219.015 535.698 217.84C534.523 216.664 533.722 215.167 533.398 213.537C533.074 211.906 533.24 210.217 533.876 208.681C534.512 207.145 535.589 205.833 536.971 204.909C538.354 203.986 539.978 203.493 541.641 203.493C543.87 203.493 546.007 204.378 547.583 205.954C549.16 207.53 550.045 209.668 550.045 211.897Z" fill="#69D2E7"/>
<path opacity="0.2" d="M544.273 209.746C545.361 206.335 546.523 205 545.781 204.58C544.389 203.792 542.8 203.418 541.202 203.501C539.604 203.585 538.063 204.123 536.761 205.052C535.458 205.981 534.448 207.263 533.848 208.747C533.249 210.23 533.086 211.854 533.378 213.427C533.67 215.001 534.405 216.458 535.496 217.628C536.588 218.798 537.991 219.632 539.54 220.032C541.089 220.432 542.721 220.381 544.242 219.886C545.764 219.391 547.112 218.471 548.129 217.236C545.633 217.965 542.877 214.134 544.273 209.746Z" fill="black"/>
<path d="M534.312 214.27C534.312 215.438 533.965 216.581 533.316 217.552C532.667 218.524 531.744 219.281 530.665 219.728C529.585 220.175 528.397 220.292 527.251 220.064C526.105 219.836 525.053 219.274 524.226 218.447C523.4 217.621 522.838 216.568 522.61 215.422C522.382 214.276 522.499 213.089 522.946 212.009C523.393 210.93 524.15 210.007 525.122 209.358C526.093 208.709 527.235 208.362 528.404 208.362C529.971 208.362 531.473 208.985 532.581 210.093C533.689 211.2 534.312 212.703 534.312 214.27Z" fill="#69D2E7"/>
<path opacity="0.2" d="M528.404 208.362C527.165 208.364 525.957 208.757 524.956 209.487C524.795 213.083 527.86 216.606 527.007 217.792C526.154 218.979 524.041 218.25 523.299 217.236C523.82 218.133 524.567 218.876 525.466 219.393C526.365 219.909 527.384 220.18 528.42 220.178C529.457 220.176 530.475 219.901 531.372 219.381C532.269 218.861 533.013 218.114 533.53 217.216C534.046 216.317 534.318 215.298 534.316 214.262C534.315 213.225 534.041 212.207 533.521 211.31C533.002 210.413 532.256 209.668 531.357 209.151C530.459 208.633 529.44 208.361 528.404 208.362Z" fill="black"/>
<path d="M535.795 218.744C541.781 218.744 546.634 213.891 546.634 207.905C546.634 201.918 541.781 197.066 535.795 197.066C529.808 197.066 524.956 201.918 524.956 207.905C524.956 213.891 529.808 218.744 535.795 218.744Z" fill="#69D2E7"/>
<path opacity="0.1" d="M546.337 210.426C545.918 212.174 545.071 213.791 543.871 215.13C542.672 216.47 541.158 217.49 539.466 218.098C537.775 218.707 535.958 218.885 534.18 218.617C532.403 218.349 530.719 217.643 529.282 216.563C527.845 215.482 526.7 214.061 525.949 212.428C525.198 210.794 524.865 208.999 524.98 207.205C525.095 205.411 525.655 203.674 526.608 202.15C527.562 200.626 528.88 199.363 530.443 198.475C529.499 199.006 528.641 199.677 527.897 200.464C527.358 202.781 527.598 205.211 528.578 207.379C529.558 209.546 531.225 211.33 533.321 212.456C535.417 213.581 537.825 213.985 540.173 213.604C542.521 213.224 544.679 212.081 546.312 210.352L546.337 210.426Z" fill="black"/>
<path d="M370.325 218.401L366.516 225.906L367.133 226.22L370.942 218.714L370.325 218.401Z" fill="#455A64"/>
<path d="M364.298 216.303L363.71 216.669L367.45 222.668L368.038 222.301L364.298 216.303Z" fill="#455A64"/>
<path d="M367.423 217.125V235.219C367.417 235.27 367.398 235.318 367.368 235.359C367.337 235.4 367.297 235.433 367.25 235.454C367.123 235.515 366.984 235.547 366.842 235.547C366.701 235.547 366.562 235.515 366.435 235.454C366.391 235.431 366.354 235.397 366.326 235.356C366.298 235.315 366.28 235.268 366.274 235.219V217.125H367.423Z" fill="#455A64"/>
<path d="M381.105 211.489C381.105 213.151 380.612 214.776 379.689 216.158C378.765 217.54 377.453 218.618 375.917 219.254C374.381 219.89 372.691 220.056 371.061 219.732C369.431 219.408 367.933 218.607 366.758 217.432C365.583 216.256 364.782 214.759 364.458 213.129C364.134 211.498 364.3 209.809 364.936 208.273C365.572 206.737 366.649 205.425 368.032 204.501C369.414 203.578 371.039 203.085 372.701 203.085C374.929 203.088 377.065 203.974 378.64 205.55C380.215 207.125 381.102 209.261 381.105 211.489Z" fill="#69D2E7"/>
<path opacity="0.2" d="M375.333 209.338C376.421 205.927 377.57 204.592 376.841 204.172C375.449 203.384 373.862 203.009 372.264 203.092C370.667 203.175 369.127 203.712 367.824 204.64C366.521 205.568 365.51 206.848 364.91 208.331C364.31 209.813 364.145 211.436 364.435 213.009C364.725 214.582 365.458 216.04 366.547 217.211C367.637 218.382 369.038 219.217 370.586 219.62C372.134 220.022 373.765 219.974 375.286 219.482C376.808 218.99 378.158 218.073 379.177 216.841C376.693 217.557 373.924 213.763 375.333 209.338Z" fill="black"/>
<path d="M365.372 213.862C365.374 215.031 365.03 216.174 364.382 217.148C363.734 218.121 362.813 218.88 361.733 219.329C360.654 219.778 359.466 219.897 358.319 219.67C357.172 219.444 356.118 218.882 355.291 218.056C354.463 217.231 353.9 216.178 353.671 215.032C353.442 213.885 353.558 212.697 354.005 211.617C354.451 210.536 355.209 209.613 356.18 208.963C357.152 208.313 358.295 207.967 359.464 207.967C361.029 207.967 362.529 208.587 363.637 209.693C364.745 210.798 365.368 212.297 365.372 213.862Z" fill="#69D2E7"/>
<path opacity="0.2" d="M359.464 207.954C358.225 207.95 357.018 208.339 356.016 209.067C355.855 212.676 358.92 216.186 358.055 217.372C357.19 218.559 355.089 217.829 354.347 216.828C354.868 217.725 355.615 218.469 356.514 218.985C357.413 219.501 358.431 219.772 359.468 219.77C360.505 219.768 361.523 219.493 362.419 218.973C363.316 218.453 364.06 217.706 364.577 216.808C365.094 215.909 365.365 214.89 365.364 213.854C365.362 212.817 365.088 211.799 364.569 210.902C364.05 210.005 363.303 209.26 362.405 208.743C361.507 208.226 360.488 207.954 359.451 207.954H359.464Z" fill="black"/>
<path d="M366.842 218.336C372.829 218.336 377.682 213.483 377.682 207.497C377.682 201.511 372.829 196.658 366.842 196.658C360.856 196.658 356.003 201.511 356.003 207.497C356.003 213.483 360.856 218.336 366.842 218.336Z" fill="#69D2E7"/>
<path opacity="0.1" d="M377.397 209.981C376.986 211.735 376.144 213.358 374.948 214.705C373.751 216.052 372.238 217.079 370.545 217.694C368.852 218.308 367.032 218.492 365.25 218.227C363.469 217.962 361.781 217.257 360.34 216.176C358.899 215.095 357.751 213.672 356.998 212.036C356.245 210.399 355.912 208.601 356.028 206.803C356.145 205.006 356.708 203.266 357.666 201.74C358.624 200.215 359.947 198.953 361.516 198.067C360.578 198.602 359.724 199.273 358.982 200.057C358.454 202.371 358.7 204.795 359.683 206.955C360.666 209.116 362.331 210.894 364.422 212.017C366.514 213.14 368.916 213.546 371.26 213.171C373.604 212.797 375.76 211.663 377.397 209.944V209.981Z" fill="black"/>
<path d="M470.587 155.526L478.67 160.198V169.541L470.587 164.87V155.526Z" fill="#E0E0E0"/>
<path d="M478.67 160.198L486.765 155.526V174.201L478.67 169.541V160.198Z" fill="#F0F0F0"/>
<path d="M478.67 147.579L469.746 152.72V155.056L478.67 160.198L487.606 155.056V152.72L478.67 147.579Z" fill="#455A64"/>
<path d="M469.746 155.056L478.67 160.198V157.862L469.746 152.72V155.056Z" fill="#37474F"/>
<path d="M487.606 155.056L478.67 160.198V157.862L487.606 152.72V155.056Z" fill="#263238"/>
<path d="M472.737 152.72L478.67 149.309L484.615 152.72L478.67 156.144L472.737 152.72Z" fill="#69D2E7"/>
<path d="M478.67 149.309V156.144L472.737 152.72L478.67 149.309Z" fill="#37474F"/>
<path d="M478.67 149.309L484.615 152.72L478.67 156.144V149.309Z" fill="#263238"/>
<path d="M451.183 249.296L451.17 207.559L475.234 221.463V263.201L451.183 249.296Z" fill="#F0F0F0"/>
<path d="M451.17 207.559L475.234 221.463V238.086L451.17 224.207V207.559Z" fill="#E0E0E0"/>
<path d="M523.472 235.38V193.642L499.322 179.726L475.234 221.463V263.201L523.472 235.38Z" fill="#FAFAFA"/>
<path d="M471.254 228.421L499.322 179.726V175.091L467.237 230.745L471.254 228.421Z" fill="#37474F"/>
<path d="M451.17 147.27L499.322 175.091L467.237 230.745L451.183 221.463L451.17 147.27Z" fill="#455A64"/>
<path d="M499.322 179.726L527.489 195.953L531.506 193.642L499.322 175.091V179.726Z" fill="#263238"/>
<path d="M509.395 216.544L518.838 211.131V225.047L509.395 230.461V216.544Z" fill="#455A64"/>
<path d="M518.034 224.578V211.6L509.395 216.544V229.521L518.034 224.578Z" fill="#E0E0E0"/>
<path d="M518.838 225.047L518.034 224.578L509.395 229.521V230.461L518.838 225.047Z" fill="#37474F"/>
<path d="M509.395 223.502L518.838 218.089V217.15L509.395 222.563V223.502Z" fill="#455A64"/>
<path d="M479.757 233.637L489.2 228.224V242.128L479.757 247.554V233.637Z" fill="#455A64"/>
<path d="M488.397 241.67V228.681L479.757 233.637V246.614L488.397 241.67Z" fill="#E0E0E0"/>
<path d="M489.2 242.128L488.397 241.671L479.757 246.614V247.554L489.2 242.128Z" fill="#37474F"/>
<path d="M479.757 240.595L489.2 235.182V234.243L479.757 239.656V240.595Z" fill="#455A64"/>
<path d="M493.303 200.601L505.354 193.642V204.074L493.303 211.032V200.601Z" fill="#455A64"/>
<path d="M504.55 203.604V194.099L493.303 200.601V210.105L504.55 203.604Z" fill="#E0E0E0"/>
<path d="M505.354 204.074L504.55 203.604L493.303 210.105V211.032L505.354 204.074Z" fill="#37474F"/>
<path d="M527.489 195.953H523.472V193.642L527.489 195.953Z" fill="black"/>
<path d="M492.599 253.165V225.344L506.058 217.582V245.403L492.599 253.165Z" fill="#37474F"/>
<path d="M505.588 245.045V217.854L492.599 225.344V252.534L505.588 245.045Z" fill="#455A64"/>
<path d="M506.058 217.582L505.589 217.854V245.045L506.058 245.403V217.582Z" fill="#263238"/>
<path d="M451.17 249.296V207.559L427.119 221.463V263.201L451.17 249.296Z" fill="#FAFAFA"/>
<path d="M451.17 207.559L427.119 221.463V238.086L451.183 224.207L451.17 207.559Z" fill="#F5F5F5"/>
<path d="M378.88 235.38V193.642L403.018 179.726L427.119 221.463V263.201L378.88 235.38Z" fill="#EBEBEB"/>
<path d="M431.099 228.421L403.018 179.726V175.091L435.115 230.745L431.099 228.421Z" fill="#455A64"/>
<path d="M451.17 147.27L403.018 175.091L435.115 230.745L451.17 221.463V147.27Z" fill="#37474F"/>
<path d="M403.018 179.726L374.864 195.953L370.847 193.642L403.018 175.091V179.726Z" fill="#263238"/>
<path d="M396.357 217.607L386.914 212.194V226.11L396.357 231.511V217.607Z" fill="#455A64"/>
<path d="M387.717 225.641V212.651L396.357 217.607V230.584L387.717 225.641Z" fill="#FAFAFA"/>
<path d="M387.717 212.651L396.357 217.644V219.362L387.717 214.406V212.651Z" fill="#F5F5F5"/>
<path d="M410.409 225.752L419.048 230.745V232.463L410.409 227.507V225.752Z" fill="#F5F5F5"/>
<path d="M386.914 226.11L387.717 225.641L396.357 230.584V231.511L386.914 226.11Z" fill="#37474F"/>
<path d="M396.357 224.565L386.914 219.152V218.213L396.357 223.626V224.565Z" fill="#455A64"/>
<path d="M409.05 200.601L396.999 193.642V204.074L409.05 211.032V200.601Z" fill="#455A64"/>
<path d="M397.803 203.604V194.099L409.05 200.601V210.105L397.803 203.604Z" fill="#FAFAFA"/>
<path d="M397.803 194.099L409.05 200.601V202.318L397.803 195.867V194.099Z" fill="#F5F5F5"/>
<path d="M396.999 204.074L397.803 203.604L409.05 210.105V211.032L396.999 204.074Z" fill="#37474F"/>
<path d="M374.864 195.953H378.88V193.642L374.864 195.953Z" fill="black"/>
<path d="M419.048 230.745L409.606 225.294V239.199L419.048 244.649V230.745Z" fill="#455A64"/>
<path d="M410.409 238.729V225.752L419.048 230.745V243.722L410.409 238.729Z" fill="#FAFAFA"/>
<path d="M409.606 239.199L410.409 238.729L419.048 243.722V244.649L409.606 239.199Z" fill="#37474F"/>
<path d="M419.048 237.654L409.606 232.24V231.301L419.048 236.714V237.654Z" fill="#455A64"/>
<path d="M410.409 225.752L419.048 230.745V232.463L410.409 227.507V225.752Z" fill="#F5F5F5"/>
<path d="M467.237 230.745L455.175 223.774V236.603L467.237 243.561V230.745Z" fill="#263238"/>
<path d="M455.916 236.171V224.207L467.237 230.745V242.709L455.916 236.171Z" fill="#FAFAFA"/>
<path d="M455.916 224.207V226.988L467.237 233.538V230.745L455.916 224.207Z" fill="#F0F0F0"/>
<path d="M455.175 236.603L455.916 236.171L467.237 242.709V243.562L455.175 236.603Z" fill="#37474F"/>
<path d="M455.175 230.189L455.916 229.756L467.237 236.294V237.159L455.175 230.189Z" fill="#37474F"/>
<path d="M460.959 239.94L461.7 240.361V227.544L460.959 227.111V239.94Z" fill="#37474F"/>
<path d="M442.927 258.627L445.065 257.392C445.654 253.916 445.741 250.374 445.324 246.874C444.249 240.051 439.59 237.691 437.909 238.37C436.228 239.05 435.832 241.077 438.885 245.02C441.645 249.011 443.061 253.777 442.927 258.627Z" fill="#69D2E7"/>
<g opacity="0.2">
<path opacity="0.2" d="M442.927 258.627L445.065 257.392C445.654 253.916 445.741 250.374 445.324 246.874C444.249 240.051 439.59 237.691 437.909 238.37C436.228 239.05 435.832 241.077 438.885 245.02C441.645 249.011 443.061 253.777 442.927 258.627Z" fill="black"/>
</g>
<path d="M443.705 255.958C443.685 255.956 443.664 255.951 443.646 255.941C443.628 255.931 443.612 255.918 443.599 255.902C443.586 255.885 443.577 255.866 443.572 255.846C443.567 255.826 443.566 255.805 443.569 255.785C444.459 249.395 441.888 242.387 438.996 239.557C438.968 239.529 438.953 239.491 438.953 239.452C438.953 239.413 438.968 239.375 438.996 239.347C439.024 239.319 439.062 239.303 439.101 239.303C439.141 239.303 439.179 239.319 439.206 239.347C442.148 242.214 444.768 249.333 443.878 255.834C443.875 255.854 443.868 255.873 443.858 255.89C443.848 255.907 443.834 255.921 443.818 255.933C443.802 255.944 443.783 255.952 443.764 255.957C443.745 255.961 443.725 255.961 443.705 255.958Z" fill="white"/>
<path d="M436.994 262.1C436.648 262.298 435.956 261.878 435.684 261.693C435.229 261.379 434.863 260.953 434.621 260.457C434.347 259.898 434.252 259.267 434.349 258.652C434.403 258.327 434.477 258.005 434.572 257.688C434.67 257.367 434.757 257.058 434.843 256.749C434.956 256.445 435.002 256.12 434.979 255.797C434.895 255.486 434.749 255.196 434.549 254.943C434.349 254.69 434.101 254.48 433.818 254.326C433.5 254.143 433.229 253.887 433.028 253.58C432.826 253.273 432.699 252.924 432.656 252.559C432.696 251.959 432.935 251.389 433.336 250.94C433.706 250.47 434.139 250.063 434.473 249.568C434.701 249.302 434.836 248.968 434.858 248.619C434.881 248.269 434.789 247.921 434.596 247.628C434.284 247.148 434.011 246.644 433.781 246.12C433.668 245.857 433.633 245.567 433.679 245.285C433.725 245.003 433.85 244.739 434.04 244.526C434.227 244.385 434.441 244.283 434.668 244.226C434.895 244.169 435.131 244.157 435.363 244.192C435.802 244.242 436.224 244.39 436.599 244.624C437.834 245.304 438.527 246.763 439.824 247.282C440.338 247.446 440.862 247.574 441.394 247.665C441.661 247.712 441.915 247.816 442.139 247.969C442.363 248.123 442.551 248.322 442.692 248.555C443.174 249.506 442.284 250.68 442.618 251.694C442.951 252.707 443.792 252.93 444.274 253.746C444.481 254.095 444.563 254.505 444.508 254.907C444.465 255.595 444.297 256.269 444.014 256.897C443.691 257.514 443.328 258.108 442.926 258.677L436.994 262.1Z" fill="#69D2E7"/>
<g opacity="0.1">
<path opacity="0.1" d="M436.994 262.1C436.648 262.298 435.956 261.878 435.684 261.693C435.229 261.379 434.863 260.953 434.621 260.457C434.347 259.898 434.252 259.267 434.349 258.652C434.403 258.327 434.477 258.005 434.572 257.688C434.67 257.367 434.757 257.058 434.843 256.749C434.956 256.445 435.002 256.12 434.979 255.797C434.895 255.486 434.749 255.196 434.549 254.943C434.349 254.69 434.101 254.48 433.818 254.326C433.5 254.143 433.229 253.887 433.028 253.58C432.826 253.273 432.699 252.924 432.656 252.559C432.696 251.959 432.935 251.389 433.336 250.94C433.706 250.47 434.139 250.063 434.473 249.568C434.701 249.302 434.836 248.968 434.858 248.619C434.881 248.269 434.789 247.921 434.596 247.628C434.284 247.148 434.011 246.644 433.781 246.12C433.668 245.857 433.633 245.567 433.679 245.285C433.725 245.003 433.85 244.739 434.04 244.526C434.227 244.385 434.441 244.283 434.668 244.226C434.895 244.169 435.131 244.157 435.363 244.192C435.802 244.242 436.224 244.39 436.599 244.624C437.834 245.304 438.527 246.763 439.824 247.282C440.338 247.446 440.862 247.574 441.394 247.665C441.661 247.712 441.915 247.816 442.139 247.969C442.363 248.123 442.551 248.322 442.692 248.555C443.174 249.506 442.284 250.68 442.618 251.694C442.951 252.707 443.792 252.93 444.274 253.746C444.481 254.095 444.563 254.505 444.508 254.907C444.465 255.595 444.297 256.269 444.014 256.897C443.691 257.514 443.328 258.108 442.926 258.677L436.994 262.1Z" fill="black"/>
</g>
<path d="M440.467 260.259C440.428 260.253 440.391 260.234 440.364 260.205C440.337 260.176 440.321 260.138 440.319 260.098C440.578 254.042 437.723 247.356 435.647 245.415C435.632 245.402 435.62 245.385 435.612 245.367C435.604 245.348 435.6 245.329 435.599 245.309C435.598 245.288 435.602 245.268 435.609 245.25C435.616 245.231 435.627 245.214 435.641 245.199C435.654 245.184 435.671 245.173 435.689 245.165C435.708 245.156 435.727 245.152 435.748 245.151C435.768 245.151 435.788 245.154 435.806 245.161C435.825 245.168 435.842 245.179 435.857 245.193C437.97 247.17 440.887 253.968 440.628 260.111C440.625 260.151 440.606 260.189 440.576 260.216C440.547 260.244 440.508 260.259 440.467 260.259Z" fill="white"/>
<path d="M439.552 253.103C438.115 252.713 436.64 252.477 435.152 252.398C435.132 252.398 435.112 252.394 435.093 252.386C435.074 252.378 435.057 252.366 435.043 252.351C435.029 252.336 435.018 252.318 435.012 252.298C435.005 252.279 435.002 252.258 435.004 252.238C435.007 252.197 435.026 252.159 435.055 252.132C435.085 252.104 435.124 252.089 435.165 252.089C436.678 252.168 438.179 252.413 439.639 252.819C439.658 252.824 439.675 252.834 439.69 252.846C439.705 252.858 439.718 252.874 439.727 252.891C439.736 252.908 439.742 252.927 439.744 252.946C439.746 252.966 439.744 252.985 439.738 253.004C439.724 253.04 439.698 253.07 439.664 253.088C439.629 253.106 439.59 253.111 439.552 253.103Z" fill="white"/>
<path d="M492.599 253.165L506.058 245.403L518.133 252.374L504.674 260.123L492.599 253.165Z" fill="#F0F0F0"/>
<path d="M274.951 273.335L157.463 341.163V346.379L279.462 416.815L396.937 348.987V343.771L274.951 273.335Z" fill="#69D2E7"/>
<path d="M329.171 367.254L342.643 375.127L365.273 362.063L351.764 354.215L329.171 367.254Z" fill="#F0F0F0"/>
<path opacity="0.15" d="M157.463 341.163L279.462 411.599V416.815L157.463 346.379V341.163Z" fill="black"/>
<path opacity="0.1" d="M279.462 411.599L396.937 343.771V348.987L279.462 416.815V411.599Z" fill="black"/>
<path d="M383.737 320.674L378.501 330.99L379.35 331.421L384.586 321.105L383.737 320.674Z" fill="#263238"/>
<path d="M374.009 319.798L373.21 320.292L378.317 328.542L379.115 328.047L374.009 319.798Z" fill="#263238"/>
<path d="M379.659 318.842V343.697C379.652 343.767 379.626 343.833 379.585 343.889C379.544 343.946 379.488 343.99 379.424 344.018C379.25 344.107 379.057 344.154 378.862 344.154C378.666 344.154 378.474 344.107 378.3 344.018C378.237 343.99 378.183 343.945 378.144 343.888C378.105 343.832 378.082 343.766 378.077 343.697V318.842H379.659Z" fill="#263238"/>
<path d="M386.939 322.649C393.314 322.649 398.482 317.481 398.482 311.105C398.482 304.73 393.314 299.562 386.939 299.562C380.563 299.562 375.395 304.73 375.395 311.105C375.395 317.481 380.563 322.649 386.939 322.649Z" fill="#455A64"/>
<path d="M390.56 308.164C392.043 303.467 393.637 301.638 392.624 301.069C390.712 299.986 388.531 299.471 386.336 299.585C384.142 299.698 382.025 300.436 380.235 301.711C378.445 302.986 377.057 304.745 376.232 306.782C375.408 308.819 375.182 311.049 375.582 313.21C375.981 315.371 376.989 317.373 378.487 318.981C379.985 320.589 381.91 321.736 384.038 322.287C386.165 322.839 388.405 322.771 390.495 322.093C392.586 321.415 394.439 320.154 395.837 318.459C392.426 319.448 388.632 314.244 390.56 308.164Z" fill="#37474F"/>
<path d="M368.758 322.488C373.236 322.488 376.866 318.858 376.866 314.381C376.866 309.903 373.236 306.273 368.758 306.273C364.28 306.273 360.65 309.903 360.65 314.381C360.65 318.858 364.28 322.488 368.758 322.488Z" fill="#455A64"/>
<path d="M368.758 306.261C367.054 306.258 365.393 306.795 364.012 307.793C363.802 312.737 368.004 317.582 366.83 319.213C365.656 320.845 362.751 319.831 361.75 318.459C362.467 319.686 363.494 320.703 364.728 321.408C365.962 322.113 367.359 322.481 368.781 322.476C370.202 322.471 371.596 322.092 372.825 321.378C374.053 320.664 375.073 319.639 375.781 318.407C376.488 317.175 376.86 315.778 376.858 314.357C376.856 312.936 376.481 311.54 375.769 310.31C375.058 309.08 374.036 308.058 372.805 307.347C371.575 306.637 370.179 306.262 368.758 306.261Z" fill="#37474F"/>
<path d="M393.373 309.023C395.261 301.024 390.307 293.01 382.308 291.122C374.31 289.234 366.295 294.188 364.407 302.187C362.52 310.185 367.473 318.2 375.472 320.088C383.471 321.975 391.485 317.022 393.373 309.023Z" fill="#455A64"/>
<path d="M393.39 309.029C392.811 311.414 391.649 313.618 390.008 315.444C388.368 317.269 386.3 318.659 383.989 319.489C381.679 320.318 379.199 320.561 376.772 320.196C374.345 319.831 372.046 318.869 370.082 317.397C368.118 315.925 366.55 313.988 365.519 311.761C364.488 309.534 364.026 307.085 364.174 304.635C364.322 302.185 365.075 299.81 366.367 297.723C367.659 295.636 369.449 293.903 371.576 292.678C370.287 293.413 369.113 294.333 368.091 295.409C367.832 296.524 367.7 297.664 367.695 298.808C367.67 301.798 368.549 304.726 370.218 307.208C371.886 309.689 374.266 311.609 377.044 312.714C379.823 313.819 382.87 314.059 385.787 313.401C388.705 312.744 391.355 311.22 393.39 309.029Z" fill="#37474F"/>
<path d="M180.535 317.727L175.299 328.042L176.148 328.473L181.384 318.157L180.535 317.727Z" fill="#263238"/>
<path d="M170.832 316.907L170.033 317.401L175.14 325.65L175.939 325.156L170.832 316.907Z" fill="#263238"/>
<path d="M176.509 315.938V340.793C176.504 340.861 176.48 340.927 176.441 340.984C176.402 341.04 176.349 341.085 176.286 341.114C176.112 341.203 175.919 341.249 175.724 341.249C175.528 341.249 175.335 341.203 175.161 341.114C175.097 341.086 175.042 341.041 175.001 340.985C174.959 340.928 174.934 340.862 174.927 340.793V315.938H176.509Z" fill="#263238"/>
<path d="M183.763 319.757C190.139 319.757 195.307 314.589 195.307 308.213C195.307 301.838 190.139 296.67 183.763 296.67C177.388 296.67 172.22 301.838 172.22 308.213C172.22 314.589 177.388 319.757 183.763 319.757Z" fill="#455A64"/>
<path d="M187.385 305.259C188.868 300.563 190.45 298.734 189.449 298.165C187.537 297.082 185.355 296.567 183.161 296.68C180.966 296.794 178.85 297.532 177.06 298.807C175.27 300.082 173.881 301.841 173.057 303.878C172.233 305.915 172.007 308.145 172.406 310.306C172.805 312.467 173.813 314.469 175.311 316.077C176.809 317.685 178.735 318.832 180.862 319.383C182.989 319.934 185.23 319.867 187.32 319.189C189.41 318.51 191.264 317.25 192.662 315.555C189.251 316.556 185.444 311.34 187.385 305.259Z" fill="#37474F"/>
<path d="M165.583 319.584C170.06 319.584 173.69 315.954 173.69 311.477C173.69 306.999 170.06 303.369 165.583 303.369C161.105 303.369 157.475 306.999 157.475 311.477C157.475 315.954 161.105 319.584 165.583 319.584Z" fill="#455A64"/>
<path d="M165.583 303.369C163.881 303.366 162.221 303.898 160.837 304.889C160.614 309.833 164.829 314.678 163.655 316.309C162.481 317.94 159.576 316.927 158.563 315.555C159.278 316.784 160.303 317.802 161.536 318.51C162.769 319.217 164.167 319.587 165.588 319.584C167.009 319.581 168.405 319.204 169.635 318.491C170.865 317.779 171.886 316.755 172.595 315.524C173.305 314.292 173.678 312.895 173.678 311.474C173.677 310.052 173.303 308.656 172.593 307.425C171.882 306.194 170.861 305.171 169.63 304.459C168.4 303.747 167.004 303.371 165.583 303.369Z" fill="#37474F"/>
<path d="M186.243 313.251C192.054 307.44 192.054 298.018 186.243 292.207C180.431 286.395 171.009 286.395 165.198 292.207C159.387 298.018 159.387 307.44 165.198 313.251C171.009 319.062 180.431 319.062 186.243 313.251Z" fill="#455A64"/>
<path d="M190.203 306.124C189.625 308.511 188.463 310.717 186.822 312.544C185.181 314.371 183.113 315.761 180.802 316.592C178.491 317.422 176.01 317.665 173.582 317.3C171.153 316.934 168.854 315.972 166.889 314.499C164.925 313.025 163.357 311.087 162.326 308.858C161.296 306.629 160.835 304.18 160.984 301.729C161.134 299.278 161.89 296.902 163.185 294.816C164.479 292.729 166.271 290.996 168.401 289.773C167.107 290.502 165.932 291.423 164.915 292.504C164.657 293.619 164.524 294.759 164.52 295.903C164.497 298.891 165.378 301.815 167.045 304.294C168.713 306.773 171.091 308.69 173.866 309.795C176.642 310.9 179.687 311.14 182.602 310.485C185.517 309.83 188.166 308.31 190.203 306.124Z" fill="#37474F"/>
<path d="M211.683 325.517L306.578 380.293V296.818L211.683 242.042V325.517Z" fill="#F0F0F0"/>
<path d="M279.462 348.987V395.952L184.579 341.163V294.21L279.462 348.987Z" fill="#F0F0F0"/>
<path d="M184.579 309.857L279.462 364.646V348.987L184.579 294.21V309.857Z" fill="#E0E0E0"/>
<path d="M211.683 257.688L306.578 312.465V296.818L211.683 242.029V257.688Z" fill="#E0E0E0"/>
<path d="M306.578 296.818L369.833 260.296V343.771L306.578 380.293V296.818Z" fill="#FAFAFA"/>
<path d="M279.462 348.987L306.578 322.909V380.293L279.462 395.952V348.987Z" fill="#FAFAFA"/>
<path d="M338.206 242.029L306.578 296.818L369.833 260.296L338.206 242.029Z" fill="#FAFAFA"/>
<path d="M302.055 304.642L338.206 242.029V238.124L302.055 300.736V304.642Z" fill="#69D2E7"/>
<path opacity="0.1" d="M302.055 304.642L338.206 242.029V238.124L302.055 300.736V304.642Z" fill="black"/>
<path d="M243.315 183.345L207.17 245.95L302.056 300.733L338.201 238.128L243.315 183.345Z" fill="#69D2E7"/>
<path d="M207.172 245.947L302.055 300.736V304.642L207.172 249.865V245.947Z" fill="#69D2E7"/>
<path opacity="0.15" d="M207.172 245.947L302.055 300.736V304.642L207.172 249.865V245.947Z" fill="black"/>
<path d="M338.206 238.124L377.743 260.951L374.345 262.904L338.206 242.029V238.124Z" fill="#69D2E7"/>
<path opacity="0.15" d="M338.206 238.124L377.743 260.951L374.345 262.904L338.206 242.029V238.124Z" fill="black"/>
<path d="M374.345 262.904H369.833V260.296L374.345 262.904Z" fill="#69D2E7"/>
<path opacity="0.3" d="M374.345 262.904H369.833V260.296L374.345 262.904Z" fill="black"/>
<path d="M226.242 245.205V226.419L237.057 220.178L247.834 238.84V257.688L226.242 245.205Z" fill="#F0F0F0"/>
<path opacity="0.2" d="M237.057 220.178L223.709 227.878L222.003 226.889L237.057 218.2V220.178Z" fill="black"/>
<path d="M247.834 257.688L258.624 238.976L264.136 229.41L247.834 238.84V257.688Z" fill="#FAFAFA"/>
<path opacity="0.4" d="M223.709 227.878H226.243V226.419L223.709 227.878Z" fill="black"/>
<path d="M250.405 243.29L237.057 220.178V218.2L252.074 244.254L250.405 243.29Z" fill="#69D2E7"/>
<path opacity="0.1" d="M250.405 243.29L237.057 220.178V218.2L252.074 244.254L250.405 243.29Z" fill="black"/>
<path d="M252.074 244.254L237.057 218.2L252.593 209.227L267.609 235.281L252.074 244.254Z" fill="#69D2E7"/>
<path opacity="0.3" d="M252.074 244.254L237.057 218.2L252.593 209.227L267.609 235.281L252.074 244.254Z" fill="white"/>
<path d="M242.445 235.825L231.643 229.583V242.041L242.445 248.283V235.825Z" fill="#455A64"/>
<path d="M232.743 241.399V230.214L242.445 235.825V246.998L232.743 241.399Z" fill="#E0E0E0"/>
<path d="M231.643 242.041L232.743 241.399L242.445 246.998V248.283L231.643 242.041Z" fill="#37474F"/>
<path d="M271.416 271.296V252.51L282.243 246.268L293.02 264.931V283.779L271.416 271.296Z" fill="#F0F0F0"/>
<path opacity="0.2" d="M282.243 246.268L268.895 253.968L267.177 252.979L282.243 244.291V246.268Z" fill="black"/>
<path d="M293.02 283.779L303.797 265.067L309.31 255.501L293.02 264.931V283.779Z" fill="#FAFAFA"/>
<path opacity="0.4" d="M268.895 253.968H271.416V252.51L268.895 253.968Z" fill="black"/>
<path d="M295.591 269.38L282.243 246.268V244.291L297.247 270.344L295.591 269.38Z" fill="#69D2E7"/>
<path opacity="0.1" d="M295.591 269.38L282.243 246.268V244.291L297.247 270.344L295.591 269.38Z" fill="black"/>
<path d="M297.247 270.345L282.243 244.291L297.766 235.306L312.783 261.359L297.247 270.345Z" fill="#69D2E7"/>
<path opacity="0.3" d="M297.247 270.345L282.243 244.291L297.766 235.306L312.783 261.359L297.247 270.345Z" fill="white"/>
<path d="M287.619 261.903L276.817 255.674V268.132L287.619 274.373V261.903Z" fill="#455A64"/>
<path d="M277.929 267.489V256.304L287.619 261.903V273.088L277.929 267.489Z" fill="#E0E0E0"/>
<path d="M276.817 268.132L277.929 267.489L287.619 273.088V274.374L276.817 268.132Z" fill="#37474F"/>
<path d="M211.683 264.597L306.578 319.374V322.909L274.951 356.823L180.056 302.034V298.511L211.683 264.597Z" fill="#69D2E7"/>
<path d="M211.683 264.597L306.578 319.374L274.951 353.288L180.056 298.511L211.683 264.597Z" fill="#69D2E7"/>
<path opacity="0.1" d="M274.951 353.288V356.823L306.578 322.909V319.374L274.951 353.288Z" fill="black"/>
<path opacity="0.15" d="M274.951 356.823L180.056 302.034V298.511L274.951 353.288V356.823Z" fill="black"/>
<path d="M220.73 325.504L198.137 312.465V336.467L220.73 349.506V325.504Z" fill="#263238"/>
<path d="M199.522 335.663V313.268L220.73 325.516V347.899L199.522 335.663Z" fill="#FAFAFA"/>
<path d="M199.522 313.268V318.496L220.73 330.732V325.504L199.522 313.268Z" fill="#F0F0F0"/>
<path d="M198.137 336.467L199.522 335.663L220.73 347.899V349.506L198.137 336.467Z" fill="#37474F"/>
<path d="M198.137 324.466L199.522 323.663L220.73 335.898V337.505L198.137 324.466Z" fill="#37474F"/>
<path d="M208.964 342.721L210.348 343.524V319.522L208.964 318.719V342.721Z" fill="#37474F"/>
<path d="M261.392 348.987L238.8 335.948V359.949L261.392 372.989V348.987Z" fill="#263238"/>
<path d="M240.184 359.146V336.751L261.392 348.987V371.382L240.184 359.146Z" fill="#FAFAFA"/>
<path d="M240.184 336.751V341.966L261.392 354.215V348.987L240.184 336.751Z" fill="#F0F0F0"/>
<path d="M238.8 359.95L240.184 359.146L261.392 371.382V372.989L238.8 359.95Z" fill="#37474F"/>
<path d="M238.8 347.949L240.184 347.145L261.392 359.381V360.988L238.8 347.949Z" fill="#37474F"/>
<path d="M249.626 366.203L251.011 367.007V343.005L249.626 342.202V366.203Z" fill="#37474F"/>
<path d="M293.02 351.607L315.613 338.556V362.557L293.02 375.597V351.607Z" fill="#263238"/>
<path d="M314.229 361.754V339.359L293.02 351.607V373.99L314.229 361.754Z" fill="#E6E6E6"/>
<path d="M314.229 339.359V341.658L293.02 353.894V351.607L314.229 339.359Z" fill="#E0E0E0"/>
<path d="M315.613 362.557L314.229 361.754L293.02 373.99V375.596L315.613 362.557Z" fill="#37474F"/>
<path d="M315.613 350.557L314.229 349.753L293.02 361.989V363.596L315.613 350.557Z" fill="#37474F"/>
<path d="M304.786 368.811L303.402 369.615V345.613L304.786 344.81V368.811Z" fill="#37474F"/>
<path d="M328.751 273.929L351.344 260.89V284.891L328.751 297.93V273.929Z" fill="#263238"/>
<path d="M349.96 284.088V261.693L328.751 273.928V296.324L349.96 284.088Z" fill="#E6E6E6"/>
<path d="M349.96 261.693V263.991L328.751 276.227V273.928L349.96 261.693Z" fill="#E0E0E0"/>
<path d="M351.344 284.891L349.96 284.088L328.751 296.324V297.931L351.344 284.891Z" fill="#37474F"/>
<path d="M351.344 272.89L349.96 272.087L328.751 284.335V285.942L351.344 272.89Z" fill="#37474F"/>
<path d="M340.517 291.145L339.133 291.948V267.946L340.517 267.143V291.145Z" fill="#37474F"/>
<path d="M329.171 367.254V325.516L351.764 312.465V354.215L329.171 367.254Z" fill="#37474F"/>
<path d="M350.936 353.585V312.947L329.171 325.516V366.154L350.936 353.585Z" fill="#455A64"/>
<path d="M351.764 312.465L350.936 312.947V353.584L351.764 354.215V312.465Z" fill="#263238"/>
<path d="M458.067 20.6486C457.998 17.3754 457.158 14.1647 455.616 11.2766C454.074 8.38843 451.874 5.90421 449.193 4.02528C446.721 2.45564 444.348 2.22082 442.618 3.11069C432.174 8.35105 358.784 55.4031 354.1 57.7266H354.038C353.544 58.0542 353.147 58.5074 352.886 59.0396C352.625 59.5717 352.511 60.1637 352.555 60.7547C352.584 62.4046 353.003 64.0242 353.779 65.4808C354.554 66.9373 355.664 68.1894 357.017 69.1343C357.485 69.4999 358.042 69.7338 358.631 69.812C359.22 69.8902 359.819 69.8099 360.366 69.5793H360.44C367.856 65.4883 440.294 34.6147 455.101 26.68C456.843 25.7159 457.968 23.6396 458.067 20.6486Z" fill="#69D2E7"/>
<path opacity="0.1" d="M455.187 10.5016C453.735 7.89523 451.679 5.67455 449.193 4.02528C446.721 2.45565 444.373 2.22082 442.642 3.09833L442.42 3.22192C432.891 8.09151 378.275 42.9325 359.897 54.266L359.773 54.3402L359.031 54.7975L358.809 54.9334L358.389 55.193L357.894 55.4896C355.954 56.7255 354.644 57.4424 354.187 57.7019H354.125C353.968 57.7952 353.822 57.9072 353.692 58.0356C353.346 58.3914 353.074 58.8133 352.893 59.2761C352.713 59.739 352.627 60.2334 352.642 60.73C352.617 61.0797 352.617 61.4308 352.642 61.7805C352.642 61.9165 352.642 62.0524 352.703 62.1884C352.765 62.3243 352.778 62.6086 352.827 62.8311C352.876 63.0535 352.914 63.1771 352.963 63.3378C353.012 63.4985 353.087 63.7456 353.161 63.9434C353.235 64.1411 353.272 64.24 353.321 64.3883V64.4625L455.187 10.5016Z" fill="black"/>
<path d="M357.004 69.1465C355.658 68.2039 354.553 66.9574 353.777 65.508C353.002 64.0587 352.579 62.4472 352.543 60.804C352.654 57.7883 354.804 56.6265 357.363 58.2209C358.711 59.1648 359.817 60.4132 360.593 61.8649C361.368 63.3165 361.79 64.9305 361.825 66.5758C361.726 69.5915 359.563 70.7656 357.004 69.1465Z" fill="#69D2E7"/>
<path d="M335.067 71.1735C335.096 72.436 335.421 73.674 336.015 74.7881C336.61 75.9022 337.457 76.8612 338.49 77.588C338.849 77.8653 339.275 78.0423 339.724 78.101C340.174 78.1596 340.631 78.0977 341.049 77.9217L358.797 68.4668C359.174 68.2165 359.477 67.8708 359.677 67.4647C359.877 67.0587 359.965 66.607 359.934 66.1556C359.907 64.8927 359.583 63.654 358.988 62.5396C358.393 61.4252 357.544 60.4665 356.51 59.7411C356.153 59.4606 355.728 59.2806 355.278 59.2198C354.828 59.1589 354.37 59.2194 353.952 59.395L336.204 68.8499C335.825 69.1013 335.52 69.449 335.32 69.8574C335.12 70.2658 335.033 70.7201 335.067 71.1735Z" fill="#37474F"/>
<path d="M336.228 68.8499C335.845 69.0982 335.535 69.4447 335.331 69.8533C335.126 70.2619 335.035 70.7178 335.067 71.1735C335.06 72.1115 335.245 73.0409 335.61 73.9049L358.5 61.6939C357.981 60.9189 357.313 60.255 356.535 59.7411C356.178 59.4606 355.753 59.2806 355.303 59.2198C354.853 59.1589 354.395 59.2194 353.976 59.395L336.228 68.8499Z" fill="#263238"/>
<path d="M357.845 86.9195C357.845 75.5489 350.33 64.1783 335.289 55.5021C305.231 38.1372 256.486 38.1372 226.416 55.5021C211.387 64.1536 203.872 75.5489 203.872 86.9195V107.93C203.872 119.301 211.387 130.672 226.428 139.36C256.486 156.663 305.231 156.663 335.289 139.36C350.33 130.709 357.845 119.301 357.845 107.93V86.9195ZM230.111 61.9413C243.533 54.192 261.541 49.928 280.784 49.928C300.028 49.928 318.072 54.192 331.458 61.9413C343.595 68.949 350.281 77.823 350.281 86.9319C350.281 96.0407 343.595 104.902 331.458 111.91C318.035 119.659 300.028 123.923 280.784 123.923C261.541 123.923 243.496 119.659 230.111 111.91C217.962 104.902 211.288 96.0284 211.288 86.9319C211.288 77.8354 217.999 68.949 230.111 61.9413Z" fill="#69D2E7"/>
<path opacity="0.3" d="M226.403 118.349C256.473 135.714 305.206 135.714 335.277 118.349C365.347 100.984 365.347 72.8545 335.277 55.5019C305.206 38.1494 256.473 38.1371 226.403 55.5019C196.333 72.8668 196.358 100.997 226.403 118.349ZM211.3 86.9317C211.3 77.8229 217.986 68.9489 230.123 61.9412C243.558 54.1918 261.566 49.9279 280.797 49.9279C300.028 49.9279 318.085 54.1918 331.47 61.9412C343.607 68.9489 350.293 77.8229 350.293 86.9317C350.293 96.0406 343.607 104.902 331.47 111.91C318.035 119.659 300.028 123.923 280.797 123.923C261.566 123.923 243.509 119.659 230.123 111.91C217.999 104.902 211.312 96.0282 211.312 86.9317H211.3Z" fill="white"/>
<path d="M211.312 86.9195C211.356 90.623 212.393 94.2468 214.316 97.4126C217.368 92.1228 222.745 87.1667 230.148 82.9027C243.558 75.1411 261.578 70.8771 280.821 70.8771C300.065 70.8771 318.11 75.1411 331.495 82.9027C338.91 87.1667 344.274 92.1228 347.339 97.4126C349.252 94.2433 350.285 90.621 350.33 86.9195C350.33 77.823 343.644 68.949 331.495 61.9413C318.085 54.192 300.065 49.928 280.821 49.928C261.578 49.928 243.521 54.192 230.148 61.9413C217.999 68.949 211.312 77.823 211.312 86.9195Z" fill="#69D2E7"/>
<path opacity="0.1" d="M211.312 86.9195C211.356 90.623 212.393 94.2468 214.316 97.4126C217.368 92.1228 222.745 87.1667 230.148 82.9027C243.558 75.1411 261.578 70.8771 280.821 70.8771C300.065 70.8771 318.11 75.1411 331.495 82.9027C338.91 87.1667 344.274 92.1228 347.339 97.4126C349.252 94.2433 350.285 90.621 350.33 86.9195C350.33 77.823 343.644 68.949 331.495 61.9413C318.085 54.192 300.065 49.928 280.821 49.928C261.578 49.928 243.521 54.192 230.148 61.9413C217.999 68.949 211.312 77.823 211.312 86.9195Z" fill="black"/>
<path opacity="0.4" d="M230.111 71.4331C243.546 63.6838 261.553 59.4075 280.784 59.4075C300.016 59.4075 318.073 63.6838 331.458 71.4331C341.469 77.2173 347.76 84.2621 349.663 91.6654C347.76 99.081 341.469 106.126 331.458 111.91C318.023 119.659 300.016 123.923 280.784 123.923C261.553 123.923 243.496 119.659 230.111 111.91C220.1 106.126 213.809 99.0686 211.906 91.6654C213.834 84.2621 220.125 77.2173 230.111 71.4331Z" fill="white"/>
<path opacity="0.1" d="M262.715 130.091V151.101C249.416 149.248 236.76 145.33 226.428 139.335C211.387 130.684 203.872 119.276 203.872 107.893V86.8822C203.877 84.5657 204.185 82.2598 204.787 80.0228C201.079 93.5563 208.346 107.881 226.403 118.337C236.81 124.356 249.416 128.274 262.715 130.091Z" fill="black"/>
</svg>
