<svg width="195" height="133" viewBox="0 0 195 133" fill="none" xmlns="http://www.w3.org/2000/svg">
<g clip-path="url(#clip0_443_1073)">
<path d="M53.8808 133.209H53.3196C53.3196 126.247 50.5404 119.57 45.5933 114.647C40.6463 109.724 33.9366 106.958 26.9405 106.958C19.9443 106.958 13.2347 109.724 8.28764 114.647C3.3406 119.57 0.561379 126.247 0.561379 133.209H0.00012207C0.000122177 126.098 2.83847 119.279 7.89077 114.252C12.9431 109.224 19.7955 106.399 26.9405 106.399C34.0855 106.399 40.9379 109.224 45.9902 114.252C51.0425 119.279 53.8808 126.098 53.8808 133.209Z" fill="#3F3D56"/>
<path d="M183.252 69.2573H182.69C182.69 42.7716 161.037 21.2241 134.422 21.2241C107.807 21.2241 86.154 42.7716 86.154 69.2573H85.5928C85.5928 42.4637 107.498 20.6655 134.422 20.6655C161.347 20.6655 183.252 42.4637 183.252 69.2573Z" fill="#3F3D56"/>
<path d="M40.8325 22.0618C46.9545 22.0618 51.9174 17.1231 51.9174 11.0309C51.9174 4.9387 46.9545 0 40.8325 0C34.7105 0 29.7477 4.9387 29.7477 11.0309C29.7477 17.1231 34.7105 22.0618 40.8325 22.0618Z" fill="#FF6584"/>
<path d="M43.1866 86.9581L62.2304 64.3889H99.6716L122.552 86.5669L122.09 86.8626H122.255V132.993H43.2127V86.8626L43.1866 86.9581Z" fill="#3F3D56"/>
<path d="M54.6455 77.1461H58.9624V62.2757H54.6455V77.1461Z" fill="#3F3D56"/>
<path d="M61.934 64.093L85.4089 91.4812V132.993H43.2133V86.271L61.934 64.093Z" fill="#F38630"/>
<path d="M79.9831 96.9167H71.3657V105.685H79.9831V96.9167Z" fill="#3F3D56"/>
<path d="M79.9831 108.848H71.3657V117.616H79.9831V108.848Z" fill="#3F3D56"/>
<path d="M79.9831 96.9167H71.3657V105.685H79.9831V96.9167Z" fill="white"/>
<path d="M79.9831 108.848H71.3657V117.616H79.9831V108.848Z" fill="white"/>
<path d="M68.0651 96.9167H59.4478V105.685H68.0651V96.9167Z" fill="#3F3D56"/>
<path d="M68.0651 108.848H59.4478V117.616H68.0651V108.848Z" fill="#3F3D56"/>
<path d="M68.0651 96.9167H59.4478V105.685H68.0651V96.9167Z" fill="white"/>
<path d="M68.0651 108.848H59.4478V117.616H68.0651V108.848Z" fill="white"/>
<path d="M56.1482 96.9167H47.5308V105.685H56.1482V96.9167Z" fill="#3F3D56"/>
<path d="M56.1482 108.848H47.5308V117.616H56.1482V108.848Z" fill="#3F3D56"/>
<path d="M56.1482 96.9167H47.5308V105.685H56.1482V96.9167Z" fill="white"/>
<path d="M56.1482 108.848H47.5308V117.616H56.1482V108.848Z" fill="white"/>
<path d="M140.034 11.1707H136.105V20.9449H140.034V11.1707Z" fill="#F38630"/>
<path d="M139.754 20.1069H106.359V133.209H139.754V20.1069Z" fill="#F38630"/>
<path d="M153.224 20.1069H139.753V133.209H153.224V20.1069Z" fill="#3F3D56"/>
<path d="M117.445 29.8813H112.393V34.9081H117.445V29.8813Z" fill="white"/>
<path d="M125.582 29.8813H120.531V34.9081H125.582V29.8813Z" fill="white"/>
<path d="M133.72 29.8813H128.669V34.9081H133.72V29.8813Z" fill="white"/>
<path d="M117.584 41.3308H112.533V46.3575H117.584V41.3308Z" fill="white"/>
<path d="M125.722 41.3308H120.671V46.3575H125.722V41.3308Z" fill="white"/>
<path d="M133.861 41.3308H128.81V46.3575H133.861V41.3308Z" fill="white"/>
<path d="M117.724 52.7806H112.673V57.8074H117.724V52.7806Z" fill="white"/>
<path d="M125.863 52.7806H120.812V57.8074H125.863V52.7806Z" fill="white"/>
<path d="M134 52.7806H128.949V57.8074H134V52.7806Z" fill="white"/>
<path d="M117.865 64.2307H112.813V69.2575H117.865V64.2307Z" fill="white"/>
<path d="M126.002 64.2307H120.951V69.2575H126.002V64.2307Z" fill="white"/>
<path d="M134.142 64.2307H129.091V69.2575H134.142V64.2307Z" fill="white"/>
<path d="M118.004 75.6802H112.953V80.7069H118.004V75.6802Z" fill="white"/>
<path d="M126.144 75.6802H121.093V80.7069H126.144V75.6802Z" fill="white"/>
<path d="M134.281 75.6802H129.23V80.7069H134.281V75.6802Z" fill="white"/>
<path d="M118.146 87.13H113.094V92.1567H118.146V87.13Z" fill="white"/>
<path d="M126.283 87.13H121.232V92.1567H126.283V87.13Z" fill="white"/>
<path d="M134.422 87.13H129.371V92.1567H134.422V87.13Z" fill="white"/>
<path d="M118.286 98.58H113.235V103.607H118.286V98.58Z" fill="white"/>
<path d="M126.424 98.58H121.373V103.607H126.424V98.58Z" fill="white"/>
<path d="M134.563 98.58H129.511V103.607H134.563V98.58Z" fill="white"/>
<path d="M118.426 110.03H113.375V115.057H118.426V110.03Z" fill="white"/>
<path d="M126.565 110.03H121.513V115.057H126.565V110.03Z" fill="white"/>
<path d="M126.565 123.434H121.513V132.929H126.565V123.434Z" fill="white"/>
<path d="M134.702 110.03H129.65V115.057H134.702V110.03Z" fill="white"/>
<path d="M141.998 11.1707H139.753V20.6656H141.998V11.1707Z" fill="#3F3D56"/>
<path d="M182.129 60.8794H178.2V66.6723H182.129V60.8794Z" fill="#F38630"/>
<path d="M181.848 66.1758H148.453V133.209H181.848V66.1758Z" fill="#F38630"/>
<path d="M195.318 66.1758H181.848V133.209H195.318V66.1758Z" fill="#3F3D56"/>
<path d="M160.099 75.6802H155.048V80.7069H160.099V75.6802Z" fill="white"/>
<path d="M168.238 75.6802H163.186V80.7069H168.238V75.6802Z" fill="white"/>
<path d="M176.376 75.6802H171.325V80.7069H176.376V75.6802Z" fill="white"/>
<path d="M160.24 87.13H155.188V92.1567H160.24V87.13Z" fill="white"/>
<path d="M168.378 87.13H163.327V92.1567H168.378V87.13Z" fill="white"/>
<path d="M176.516 87.13H171.465V92.1567H176.516V87.13Z" fill="white"/>
<path d="M160.38 98.58H155.329V103.607H160.38V98.58Z" fill="white"/>
<path d="M168.519 98.58H163.468V103.607H168.519V98.58Z" fill="white"/>
<path d="M176.656 98.58H171.605V103.607H176.656V98.58Z" fill="white"/>
<path d="M160.521 110.03H155.469V115.057H160.521V110.03Z" fill="white"/>
<path d="M168.658 110.03H163.607V115.057H168.658V110.03Z" fill="white"/>
<path d="M168.658 123.434H163.607V132.929H168.658V123.434Z" fill="white"/>
<path d="M176.796 110.03H171.745V115.057H176.796V110.03Z" fill="white"/>
<path d="M184.093 60.8794H181.848V66.5068H184.093V60.8794Z" fill="#3F3D56"/>
<path d="M249.267 132.871H0.0689697V133.497H249.267V132.871Z" fill="#3F3D56"/>
<path d="M7.48193 119.827C11.5179 119.827 14.7897 116.571 14.7897 112.554C14.7897 108.538 11.5179 105.282 7.48193 105.282C3.44598 105.282 0.174194 108.538 0.174194 112.554C0.174194 116.571 3.44598 119.827 7.48193 119.827Z" fill="#F38630"/>
<path opacity="0.2" d="M12.9178 107.697C13.5994 109.284 13.6919 111.06 13.1787 112.708C12.6654 114.357 11.5799 115.77 10.1162 116.695C8.6524 117.62 6.90573 117.997 5.18827 117.759C3.47081 117.521 1.89449 116.682 0.740967 115.394C1.15737 116.363 1.78059 117.231 2.56745 117.937C3.35431 118.643 4.28599 119.17 5.29795 119.482C6.30991 119.794 7.37795 119.884 8.42807 119.744C9.47819 119.605 10.4853 119.24 11.3796 118.674C12.2739 118.109 13.034 117.357 13.6072 116.471C14.1805 115.584 14.5532 114.584 14.6995 113.54C14.8458 112.496 14.7623 111.432 14.4546 110.423C14.147 109.415 13.6226 108.484 12.9178 107.697H12.9178Z" fill="black"/>
<path d="M7.5021 112.555H7.52231L7.88348 133.172H7.12073L7.5021 112.555Z" fill="#3F3D56"/>
<path d="M8.83327 123.785L8.66492 123.467L7.45692 124.1L7.62527 124.418L8.83327 123.785Z" fill="#3F3D56"/>
<path d="M170.178 10.4265L172.761 8.37035C170.754 8.15001 169.93 9.23921 169.592 10.1013C168.024 9.45343 166.317 10.3025 166.317 10.3025L171.486 12.1699C171.225 11.4768 170.772 10.872 170.178 10.4265Z" fill="#3F3D56"/>
<path d="M40.5274 20.7593L43.1108 18.7031C41.1039 18.4828 40.2793 19.572 39.9418 20.4341C38.374 19.7862 36.6671 20.6353 36.6671 20.6353L41.836 22.5026C41.5752 21.8095 41.1213 21.2048 40.5274 20.7593Z" fill="#3F3D56"/>
<path d="M61.8555 15.1741L64.4388 13.1179C62.4319 12.8976 61.6073 13.9868 61.2698 14.8489C59.702 14.201 57.9951 15.0501 57.9951 15.0501L63.164 16.9174C62.9032 16.2243 62.4493 15.6196 61.8555 15.1741Z" fill="#3F3D56"/>
<path d="M66.6265 37.5149L69.2098 35.4587C67.2029 35.2384 66.3783 36.3276 66.0408 37.1897C64.473 36.5418 62.7661 37.3909 62.7661 37.3909L67.935 39.2583C67.6742 38.5652 67.2203 37.9604 66.6265 37.5149Z" fill="#3F3D56"/>
<path d="M167.091 49.2441L169.674 47.188C167.668 46.9676 166.843 48.0568 166.505 48.9189C164.938 48.2711 163.231 49.1201 163.231 49.1201L168.4 50.9875C168.139 50.2944 167.685 49.6896 167.091 49.2441Z" fill="#3F3D56"/>
<path d="M29.7476 127.344H12.3486V127.902H15.062V133.208H15.6233V127.902H26.1923V133.208H26.7536V127.902H29.7476V127.344Z" fill="#3F3D56"/>
<path d="M47.4264 129.578C46.7397 129.578 46.065 129.758 45.4706 130.1C44.8668 129.557 44.1176 129.2 43.3137 129.072C42.5099 128.944 41.6861 129.051 40.9424 129.381C40.1986 129.71 39.5668 130.247 39.1237 130.926C38.6806 131.606 38.4453 132.399 38.4463 133.209H51.3411C51.2708 132.223 50.8279 131.301 50.1015 130.627C49.3751 129.953 48.4193 129.579 47.4264 129.578Z" fill="#3F3D56"/>
<path d="M113.936 129.578C113.25 129.578 112.575 129.758 111.981 130.1C111.377 129.557 110.628 129.2 109.824 129.072C109.02 128.944 108.196 129.051 107.452 129.381C106.709 129.71 106.077 130.247 105.634 130.926C105.191 131.606 104.955 132.399 104.956 133.209H117.851C117.781 132.223 117.338 131.301 116.612 130.627C115.885 129.953 114.929 129.579 113.936 129.578Z" fill="#3F3D56"/>
<path d="M157.434 129.578C156.747 129.578 156.072 129.758 155.478 130.1C154.874 129.557 154.125 129.2 153.321 129.072C152.517 128.944 151.693 129.051 150.949 129.381C150.206 129.71 149.574 130.247 149.131 130.926C148.688 131.606 148.452 132.399 148.453 133.209H161.348C161.278 132.223 160.835 131.301 160.109 130.627C159.382 129.953 158.426 129.579 157.434 129.578Z" fill="#3F3D56"/>
<path d="M36.2028 113.66H31.7128V118.128H33.7942V133.184H34.3554V118.128H36.2028V113.66Z" fill="#3F3D56"/>
<path d="M29.7815 125.673H12.3826V126.232H29.7815V125.673Z" fill="#3F3D56"/>
<path d="M29.7815 124.277H12.3826V124.835H29.7815V124.277Z" fill="#3F3D56"/>
<path d="M29.7815 122.88H12.3826V123.439H29.7815V122.88Z" fill="#3F3D56"/>
</g>
<defs>
<clipPath id="clip0_443_1073">
<rect width="195" height="133" fill="white"/>
</clipPath>
</defs>
</svg>
