<svg width="182" height="137" viewBox="0 0 182 137" fill="none" xmlns="http://www.w3.org/2000/svg">
<g clip-path="url(#clip0_443_1227)">
<path d="M128.393 53.0012H112.916V62.8828H128.393V53.0012Z" fill="#F38630"/>
<path d="M104.277 68.4524H88.7993V78.334H104.277V68.4524Z" fill="#F38630"/>
<path d="M173.639 56.2353V35.2144H161.941V21.5598H154.023V35.2144H142.324V56.2353H135.845V8.98327H122.707V4.49163H105.25V0H87.9728V4.49163H71.5954V8.98327H57.3776V56.0556H49.8188V35.0347H38.1206V21.3802H30.2018V35.0347H18.5036V56.0556H10.9448V130.617H28.2221V104.206H40.1003V130.617H86.533V99.8939H106.69V130.617H134.766V130.796H152.043V104.386H163.921V130.796H181.198V56.2353H173.639ZM17.1539 65.2185H23.9928V70.6085H17.1539V65.2185ZM17.2438 80.3104H24.0828V85.7004H17.2438V80.3104ZM24.1728 100.792H17.3338V95.4023H24.1728V100.792ZM42.08 52.103H26.2424V48.869H42.08V52.103ZM42.08 47.4317H26.2424V44.1977H42.08V47.4317ZM42.08 42.7604H26.2424V39.5264H42.08V42.7604ZM44.3296 65.2185H51.1686V70.6085H44.3296V65.2185ZM44.4196 80.3104H51.2585V85.7004H44.4196V80.3104ZM51.3485 100.792H44.5096V95.4023H51.3485V100.792ZM79.3342 91.809H66.7361V86.2394H79.3342V91.809ZM79.3342 75.8188H66.7361V70.2491H79.3342V75.8188ZM79.3342 59.8286H66.7361V54.2589H79.3342V59.8286ZM79.3342 43.8383H66.7361V38.2687H79.3342V43.8383ZM79.3342 27.8481H66.7361V22.2785H79.3342V27.8481ZM102.91 91.809H90.3125V86.2394H102.91V91.809ZM102.91 75.8188H90.3125V70.2491H102.91V75.8188ZM102.91 59.8286H90.3125V54.2589H102.91V59.8286ZM102.91 43.8383H90.3125V38.2687H102.91V43.8383ZM102.91 27.8481H90.3125V22.2785H102.91V27.8481ZM126.487 91.809H113.889V86.2394H126.487V91.809ZM126.487 75.8188H113.889V70.2491H126.487V75.8188ZM126.487 59.8286H113.889V54.2589H126.487V59.8286ZM126.487 43.8383H113.889V38.2687H126.487V43.8383ZM126.487 27.8481H113.889V22.2785H126.487V27.8481ZM140.975 65.3982H147.813V70.7881H140.975V65.3982ZM141.065 80.4901H147.903V85.88H141.065V80.4901ZM147.993 100.972H141.155V95.582H147.993V100.972ZM165.901 52.2826H150.063V49.0486H165.901V52.2826ZM165.901 47.6113H150.063V44.3773H165.901V47.6113ZM165.901 42.94H150.063V39.706H165.901V42.94ZM168.15 65.3982H174.989V70.7881H168.15V65.3982ZM168.24 80.4901H175.079V85.88H168.24V80.4901ZM175.169 100.972H168.33V95.582H175.169V100.972Z" fill="#F38630"/>
<path d="M21.597 112.418C21.5467 113.129 21.4679 113.924 21.3461 114.759L23.5464 112.323L23.5585 112.364C23.4239 111.778 23.2073 111.214 22.9149 110.688L22.929 110.726L21.597 112.418Z" fill="#F38630"/>
<path d="M21.606 112.294L22.8962 110.654C22.6217 110.154 22.2246 109.732 21.7422 109.427C21.7185 109.413 21.6948 109.399 21.671 109.386C21.678 109.58 21.7118 110.716 21.606 112.294Z" fill="#F38630"/>
<path d="M20.4415 118.72C20.3848 118.892 20.3263 119.061 20.2659 119.227L23.5062 117.331L23.5107 117.378C23.5784 117.083 23.6348 116.789 23.6799 116.494L20.4444 118.741L20.4415 118.72Z" fill="#F38630"/>
<path d="M20.8918 117.128L23.8102 114.725L23.8185 114.77C23.8288 113.976 23.7448 113.183 23.5683 112.408L21.326 114.89C21.2083 115.673 21.0636 116.419 20.8918 117.128Z" fill="#F38630"/>
<path d="M21.2759 114.843L17.7839 110.953L17.8026 110.909C17.4743 111.371 17.1936 111.864 16.9647 112.382L20.9496 116.617C21.0862 115.999 21.1928 115.401 21.2759 114.843Z" fill="#F38630"/>
<path d="M16.9272 112.47L16.9274 112.47C16.9338 112.456 16.9394 112.44 16.9458 112.425L16.9272 112.47Z" fill="#F38630"/>
<path d="M16.7328 112.947L16.7145 112.992C16.7203 112.976 16.727 112.962 16.7329 112.947L16.7328 112.947Z" fill="#F38630"/>
<path d="M20.9264 116.72L16.9269 112.469C16.8593 112.624 16.7945 112.783 16.7325 112.947L20.8202 117.17C20.8574 117.019 20.8928 116.869 20.9264 116.72Z" fill="#F38630"/>
<path d="M23.6881 116.437C23.7677 115.902 23.8111 115.363 23.818 114.822L20.8601 117.257C20.7429 117.73 20.614 118.184 20.4733 118.619L23.6818 116.39L23.6881 116.437Z" fill="#F38630"/>
<path d="M16.2024 116.74L19.4399 120.956C19.7058 120.443 19.9408 119.914 20.1434 119.373L16.1931 115.231C16.1539 115.749 16.1496 116.269 16.1801 116.787L16.2024 116.74Z" fill="#F38630"/>
<path d="M21.611 109.383L21.64 109.37C20.931 108.992 20.1634 109.032 19.4277 109.416L21.5481 112.291C21.6622 110.584 21.6117 109.4 21.611 109.383Z" fill="#F38630"/>
<path d="M20.1604 119.509C19.9746 119.997 19.7623 120.473 19.5245 120.937L22.781 119.255L22.7843 119.302C23.0297 118.888 23.2215 118.445 23.3553 117.983C23.407 117.801 23.4542 117.619 23.4969 117.436L20.2179 119.356C20.1988 119.407 20.1799 119.459 20.1604 119.509Z" fill="#F38630"/>
<path d="M21.5389 112.418L19.37 109.477L19.3903 109.435C18.7695 109.794 18.2361 110.285 17.8282 110.874L21.2918 114.732C21.4117 113.906 21.4893 113.12 21.5389 112.418Z" fill="#F38630"/>
<path d="M20.1789 119.278C20.4203 118.62 20.6262 117.95 20.7954 117.271L16.6976 113.037C16.6 113.301 16.5104 113.576 16.4288 113.862C16.3155 114.272 16.2399 114.691 16.2029 115.114L20.1758 119.28L20.1789 119.278Z" fill="#F38630"/>
<path d="M24.3877 123.846C23.8949 124.361 23.3263 124.923 22.6987 125.489L25.9498 125.014L25.933 125.053C26.204 124.516 26.3977 123.943 26.5085 123.352L26.4947 123.391L24.3877 123.846Z" fill="#F38630"/>
<path d="M26.411 121.634C26.4018 121.608 26.3919 121.583 26.382 121.558C26.2638 121.711 25.5637 122.608 24.4745 123.756L26.5155 123.315C26.6235 122.755 26.5876 122.177 26.411 121.634Z" fill="#F38630"/>
<path d="M19.4721 127.964C19.3183 128.06 19.1651 128.153 19.0125 128.243L22.7199 128.845L22.693 128.885C22.9336 128.701 23.1654 128.51 23.3886 128.311L19.4605 127.982L19.4721 127.964Z" fill="#F38630"/>
<path d="M20.8359 127.025L24.6187 127.032L24.5964 127.072C25.1119 126.467 25.5538 125.803 25.9128 125.094L22.5998 125.578C22.0092 126.105 21.4213 126.588 20.8359 127.025Z" fill="#F38630"/>
<path d="M19.562 127.907L23.4573 128.233L23.4325 128.273C23.8354 127.912 24.2135 127.524 24.5641 127.112L20.7302 127.104C20.3382 127.393 19.9488 127.661 19.562 127.907Z" fill="#F38630"/>
<path d="M14.7895 129.831C14.8171 129.803 14.8463 129.773 14.8751 129.743C15.6694 129.617 16.4456 129.396 17.1868 129.084L17.2927 126.282C17.3241 126.21 17.3546 126.138 17.3843 126.066L17.2716 129.049C17.8044 128.823 18.3231 128.565 18.825 128.277L18.4632 123.067C18.4911 123.053 18.5192 123.038 18.5481 123.023L18.9094 128.226L18.913 128.227C19.5191 127.874 20.1057 127.489 20.6703 127.073L20.2764 121.946C20.3043 121.926 20.3321 121.906 20.36 121.885L20.7539 127.012C20.8789 126.919 21.0019 126.826 21.1229 126.733L20.798 121.543C20.8258 121.52 20.8536 121.497 20.8814 121.474L21.2066 126.668C21.7066 126.279 22.1711 125.886 22.5914 125.509L22.387 120.29L22.4295 120.268C22.2844 120.306 22.1368 120.351 21.988 120.4C22.2678 120.081 22.5195 119.738 22.7403 119.376L19.4526 121.074C19.2251 121.506 18.9691 121.922 18.6864 122.32C18.6277 122.375 18.5689 122.43 18.511 122.488L18.5153 122.55C18.4885 122.586 18.4618 122.621 18.4347 122.656L18.4288 122.572C18.3873 122.614 18.3469 122.659 18.3058 122.703C18.7222 122.184 19.0876 121.626 19.397 121.038L16.1832 116.852C16.2051 117.226 16.2418 117.603 16.2889 117.976C15.9905 117.492 15.6282 117.05 15.2116 116.662L15.2369 116.694L14.4942 118.715C14.6663 119.406 14.8375 120.187 14.9803 121.019L16.3002 118.064C16.3063 118.11 16.3126 118.156 16.319 118.202L15.0023 121.149C15.1325 121.93 15.2258 122.684 15.2821 123.411L16.8624 120.933C16.8715 120.969 16.8805 121.004 16.8895 121.039L15.2921 123.544C15.3269 124.029 15.3448 124.501 15.3459 124.959L17.2777 122.414C17.2881 122.448 17.2981 122.48 17.3081 122.513L15.3559 125.084L15.3464 125.064C15.3458 125.246 15.3426 125.425 15.3365 125.601L17.5156 123.152C17.5272 123.186 17.5379 123.217 17.5479 123.246L15.3311 125.738C15.3288 125.793 15.3268 125.848 15.324 125.902C15.2981 126.422 15.2438 126.941 15.1613 127.456L15.3716 127.243C15.3318 127.326 15.293 127.407 15.2552 127.487L15.1356 127.608C15.1218 127.687 15.1062 127.764 15.0911 127.841C15.047 127.938 15.0044 128.032 14.9635 128.124C15.003 127.948 15.0399 127.77 15.0713 127.591L10.719 124.602C11.8545 127.502 13.9927 130.26 14.1296 130.436C14.2407 130.228 14.3417 130.015 14.4344 129.797C14.4614 129.795 14.4883 129.792 14.5152 129.79C14.5041 129.816 14.4925 129.843 14.4812 129.869C14.4676 129.871 14.4539 129.873 14.4403 129.874C14.4509 129.877 14.4635 129.88 14.475 129.884C14.4097 130.036 14.342 130.185 14.2694 130.329C14.3644 130.244 14.5091 130.11 14.6821 129.938C15.7056 130.199 18.4627 130.757 20.8235 129.933L17.2064 129.148C16.4324 129.475 15.6205 129.704 14.7895 129.831ZM17.3312 125.262L17.4179 125.174L17.413 125.306L17.3262 125.394L17.3312 125.262Z" fill="#F38630"/>
<path d="M26.3385 121.517L26.3691 121.526C26.0646 120.783 25.4475 120.326 24.6359 120.152L24.4321 123.717C25.6103 122.475 26.3282 121.531 26.3385 121.517Z" fill="#F38630"/>
<path d="M18.7511 128.393C18.2968 128.65 17.8288 128.882 17.3492 129.088L20.932 129.866L20.9046 129.904C21.358 129.742 21.7888 129.522 22.187 129.252C22.3429 129.145 22.4957 129.034 22.6454 128.921L18.8937 128.311C18.8461 128.339 18.7985 128.366 18.7511 128.393Z" fill="#F38630"/>
<path d="M22.6756 125.434C23.2956 124.874 23.8573 124.318 24.3444 123.809L24.5529 120.163L24.5953 120.144C23.8881 120.024 23.1633 120.063 22.4729 120.257L22.6756 125.434Z" fill="#F38630"/>
<path d="M15.1833 116.637C14.7674 116.246 14.259 115.967 13.7057 115.825C13.6789 115.819 13.6522 115.814 13.6255 115.809C13.6921 115.991 14.0762 117.061 14.4638 118.594L15.1833 116.637Z" fill="#F38630"/>
<path d="M14.9405 121.12L10.4152 118.498L10.4193 118.451C10.25 118.991 10.1358 119.547 10.0784 120.11L15.1795 122.908C15.118 122.278 15.0341 121.676 14.9405 121.12Z" fill="#F38630"/>
<path d="M10.0697 120.204L10.0699 120.205C10.0714 120.189 10.0717 120.172 10.0733 120.157L10.0697 120.204Z" fill="#F38630"/>
<path d="M10.0316 120.718L10.0283 120.766C10.029 120.75 10.031 120.734 10.0318 120.718L10.0316 120.718Z" fill="#F38630"/>
<path d="M15.1891 123.013L10.0693 120.205C10.0529 120.373 10.0405 120.544 10.0322 120.718L15.2275 123.474C15.2161 123.319 15.2034 123.165 15.1891 123.013Z" fill="#F38630"/>
<path d="M15.2658 125.777L10.2264 123.057C10.3495 123.562 10.5064 124.058 10.6959 124.541L10.7025 124.489L15.0869 127.5C15.181 126.93 15.2407 126.355 15.2658 125.777Z" fill="#F38630"/>
<path d="M13.5683 115.823L13.5919 115.802C12.8005 115.661 12.0831 115.937 11.5022 116.528L14.4089 118.608C13.9891 116.95 13.5743 115.839 13.5683 115.823Z" fill="#F38630"/>
<path d="M14.4397 118.732L11.4664 116.604L11.4728 116.558C10.9934 117.091 10.6382 117.723 10.4327 118.409L14.9212 121.009C14.7795 120.187 14.61 119.416 14.4397 118.732Z" fill="#F38630"/>
<path d="M15.2705 125.676C15.2965 124.976 15.2848 124.276 15.2354 123.577L10.0272 120.815C10.0163 121.096 10.0163 121.386 10.0271 121.683C10.0462 122.107 10.1041 122.529 10.2 122.943L15.2681 125.679L15.2705 125.676Z" fill="#F38630"/>
<path d="M175.653 111.879C175.602 112.59 175.524 113.385 175.402 114.22L177.602 111.784L177.614 111.825C177.48 111.239 177.263 110.674 176.971 110.148L176.985 110.187L175.653 111.879Z" fill="#F38630"/>
<path d="M175.661 111.755L176.952 110.115C176.677 109.615 176.28 109.193 175.798 108.888C175.774 108.874 175.75 108.861 175.726 108.847C175.733 109.041 175.767 110.178 175.661 111.755Z" fill="#F38630"/>
<path d="M174.497 118.181C174.44 118.353 174.382 118.522 174.321 118.688L177.562 116.792L177.566 116.839C177.634 116.544 177.69 116.249 177.735 115.954L174.5 118.202L174.497 118.181Z" fill="#F38630"/>
<path d="M174.948 116.589L177.866 114.186L177.874 114.231C177.885 113.437 177.801 112.644 177.624 111.869L175.382 114.351C175.264 115.134 175.119 115.88 174.948 116.589Z" fill="#F38630"/>
<path d="M175.332 114.304L171.84 110.415L171.858 110.371C171.53 110.832 171.249 111.325 171.021 111.843L175.005 116.078C175.142 115.46 175.249 114.862 175.332 114.304Z" fill="#F38630"/>
<path d="M170.983 111.931L170.983 111.931C170.99 111.917 170.995 111.901 171.002 111.886L170.983 111.931Z" fill="#F38630"/>
<path d="M174.983 116.181L170.983 111.931C170.916 112.085 170.851 112.244 170.789 112.408L174.877 116.631C174.914 116.48 174.949 116.33 174.983 116.181Z" fill="#F38630"/>
<path d="M170.789 112.408L170.771 112.453C170.777 112.437 170.783 112.423 170.789 112.408L170.789 112.408Z" fill="#F38630"/>
<path d="M177.744 115.898C177.823 115.363 177.867 114.824 177.874 114.283L174.916 116.718C174.799 117.191 174.67 117.645 174.529 118.08L177.738 115.851L177.744 115.898Z" fill="#F38630"/>
<path d="M170.258 116.201L173.495 120.417C173.761 119.904 173.996 119.375 174.199 118.834L170.248 114.692C170.209 115.21 170.205 115.73 170.235 116.248L170.258 116.201Z" fill="#F38630"/>
<path d="M175.667 108.844L175.696 108.831C174.987 108.453 174.22 108.493 173.484 108.877L175.604 111.752C175.718 110.045 175.668 108.861 175.667 108.844Z" fill="#F38630"/>
<path d="M174.217 118.97C174.031 119.457 173.819 119.934 173.581 120.398L176.837 118.716L176.841 118.763C177.086 118.349 177.278 117.906 177.412 117.444C177.463 117.262 177.511 117.08 177.553 116.897L174.274 118.816C174.255 118.868 174.236 118.92 174.217 118.97Z" fill="#F38630"/>
<path d="M175.595 111.879L173.426 108.938L173.447 108.896C172.826 109.254 172.292 109.746 171.885 110.335L175.348 114.193C175.468 113.367 175.546 112.581 175.595 111.879Z" fill="#F38630"/>
<path d="M174.235 118.739C174.477 118.082 174.682 117.412 174.852 116.732L170.754 112.498C170.656 112.762 170.567 113.037 170.485 113.323C170.372 113.733 170.296 114.152 170.259 114.575L174.232 118.741L174.235 118.739Z" fill="#F38630"/>
<path d="M178.444 123.307C177.951 123.822 177.382 124.385 176.755 124.95L180.006 124.475L179.989 124.514C180.26 123.977 180.454 123.404 180.564 122.813L180.551 122.852L178.444 123.307Z" fill="#F38630"/>
<path d="M180.467 121.095C180.458 121.069 180.448 121.044 180.438 121.019C180.32 121.173 179.619 122.069 178.53 123.217L180.571 122.776C180.679 122.216 180.643 121.638 180.467 121.095Z" fill="#F38630"/>
<path d="M173.527 127.425C173.373 127.521 173.22 127.614 173.067 127.704L176.775 128.306L176.748 128.346C176.989 128.162 177.22 127.97 177.444 127.772L173.515 127.443L173.527 127.425Z" fill="#F38630"/>
<path d="M174.893 126.486L178.676 126.493L178.653 126.533C179.169 125.928 179.611 125.264 179.97 124.555L176.657 125.039C176.066 125.566 175.478 126.049 174.893 126.486Z" fill="#F38630"/>
<path d="M173.617 127.368L177.512 127.694L177.487 127.734C177.89 127.373 178.268 126.985 178.619 126.573L174.785 126.565C174.393 126.854 174.004 127.122 173.617 127.368Z" fill="#F38630"/>
<path d="M168.846 129.292C168.874 129.265 168.903 129.234 168.932 129.205C169.726 129.078 170.502 128.857 171.244 128.545L171.35 125.743C171.381 125.672 171.411 125.6 171.441 125.527L171.328 128.51C171.861 128.284 172.38 128.026 172.882 127.738L172.52 122.528C172.548 122.514 172.576 122.499 172.605 122.484L172.966 127.687L172.97 127.688C173.576 127.335 174.163 126.95 174.727 126.535L174.333 121.408C174.361 121.387 174.389 121.367 174.417 121.346L174.811 126.473C174.936 126.381 175.059 126.288 175.18 126.194L174.855 121.004C174.883 120.981 174.91 120.959 174.938 120.935L175.263 126.129C175.764 125.74 176.228 125.347 176.648 124.971L176.444 119.751L176.486 119.729C176.341 119.767 176.194 119.812 176.045 119.861C176.325 119.542 176.576 119.199 176.797 118.837L173.509 120.535C173.282 120.967 173.026 121.383 172.743 121.781C172.685 121.836 172.626 121.892 172.568 121.949L172.572 122.012C172.545 122.047 172.519 122.082 172.492 122.117L172.486 122.033C172.444 122.076 172.404 122.121 172.363 122.164C172.779 121.645 173.144 121.088 173.454 120.499L170.24 116.313C170.262 116.687 170.299 117.064 170.346 117.437C170.047 116.953 169.685 116.511 169.268 116.123L169.294 116.156L168.551 118.176C168.723 118.868 168.894 119.648 169.037 120.48L170.357 117.525C170.363 117.571 170.37 117.617 170.376 117.663L169.059 120.611C169.189 121.391 169.283 122.145 169.339 122.872L170.919 120.394C170.928 120.43 170.937 120.466 170.946 120.501L169.349 123.005C169.384 123.491 169.402 123.962 169.403 124.42L171.335 121.876C171.345 121.909 171.355 121.942 171.365 121.974L169.413 124.545L169.403 124.525C169.403 124.707 169.399 124.886 169.393 125.062L171.572 122.613C171.584 122.647 171.595 122.679 171.605 122.708L169.388 125.199C169.386 125.254 169.384 125.309 169.381 125.363C169.355 125.884 169.301 126.402 169.218 126.917L169.428 126.705C169.389 126.787 169.35 126.868 169.312 126.949L169.192 127.07C169.179 127.148 169.163 127.225 169.148 127.302C169.104 127.399 169.061 127.494 169.02 127.586C169.06 127.409 169.097 127.231 169.128 127.052L164.776 124.063C165.911 126.963 168.05 129.722 168.187 129.897C168.298 129.69 168.399 129.476 168.491 129.259C168.518 129.256 168.545 129.254 168.572 129.251C168.561 129.278 168.549 129.304 168.538 129.33C168.524 129.332 168.511 129.334 168.497 129.335C168.508 129.338 168.52 129.342 168.532 129.345C168.467 129.497 168.399 129.646 168.326 129.791C168.421 129.706 168.566 129.571 168.739 129.4C169.762 129.661 172.52 130.218 174.88 129.394L171.263 128.609C170.489 128.936 169.677 129.166 168.846 129.292ZM171.388 124.723L171.475 124.636L171.47 124.767L171.383 124.855L171.388 124.723Z" fill="#F38630"/>
<path d="M180.395 120.978L180.425 120.987C180.121 120.244 179.504 119.787 178.692 119.613L178.488 123.178C179.667 121.936 180.384 120.992 180.395 120.978Z" fill="#F38630"/>
<path d="M172.807 127.854C172.353 128.111 171.885 128.343 171.405 128.549L174.988 129.327L174.96 129.365C175.414 129.203 175.845 128.984 176.243 128.713C176.399 128.606 176.552 128.496 176.701 128.382L172.949 127.772C172.902 127.8 172.854 127.828 172.807 127.854Z" fill="#F38630"/>
<path d="M176.731 124.895C177.351 124.335 177.913 123.78 178.4 123.27L178.609 119.624L178.651 119.605C177.944 119.486 177.219 119.525 176.529 119.719L176.731 124.895Z" fill="#F38630"/>
<path d="M169.239 116.098C168.823 115.707 168.315 115.428 167.761 115.286C167.735 115.28 167.708 115.275 167.681 115.27C167.748 115.452 168.132 116.522 168.52 118.055L169.239 116.098Z" fill="#F38630"/>
<path d="M168.996 120.581L164.471 117.959L164.475 117.912C164.306 118.452 164.192 119.008 164.134 119.571L169.235 122.369C169.174 121.739 169.09 121.137 168.996 120.581Z" fill="#F38630"/>
<path d="M164.088 120.179L164.085 120.227C164.086 120.211 164.088 120.195 164.089 120.179L164.088 120.179Z" fill="#F38630"/>
<path d="M164.125 119.666L164.125 119.666C164.127 119.65 164.127 119.633 164.129 119.618L164.125 119.666Z" fill="#F38630"/>
<path d="M169.246 122.474L164.126 119.666C164.11 119.834 164.097 120.005 164.089 120.179L169.284 122.935C169.273 122.78 169.26 122.626 169.246 122.474Z" fill="#F38630"/>
<path d="M169.322 125.239L164.282 122.518C164.405 123.023 164.562 123.519 164.752 124.002L164.758 123.95L169.143 126.961C169.237 126.391 169.296 125.816 169.322 125.239Z" fill="#F38630"/>
<path d="M167.625 115.285L167.648 115.263C166.857 115.122 166.14 115.398 165.559 115.99L168.465 118.069C168.045 116.411 167.631 115.3 167.625 115.285Z" fill="#F38630"/>
<path d="M168.496 118.193L165.522 116.065L165.529 116.019C165.049 116.552 164.694 117.184 164.489 117.87L168.977 120.47C168.835 119.648 168.666 118.876 168.496 118.193Z" fill="#F38630"/>
<path d="M169.326 125.137C169.352 124.438 169.341 123.737 169.291 123.038L164.083 120.276C164.072 120.558 164.072 120.847 164.083 121.144C164.102 121.568 164.16 121.99 164.256 122.404L169.324 125.14L169.326 125.137Z" fill="#F38630"/>
<path d="M10.9448 130.617H181.198V133.049C181.198 134.071 180.791 135.052 180.067 135.775C179.342 136.499 178.36 136.905 177.335 136.905H14.8078C13.7833 136.905 12.8007 136.499 12.0763 135.775C11.3518 135.052 10.9448 134.071 10.9448 133.049V130.617Z" fill="#2F2E41"/>
<path d="M181.198 128.64H10.9448V132.054H181.198V128.64Z" fill="#3F3D56"/>
<path d="M142.89 11.8531L144.845 13.091L143.658 10.9361C143.994 10.6683 144.41 10.52 144.841 10.5148C144.851 10.5148 144.862 10.5149 144.872 10.5151C145.008 10.5173 145.144 10.5072 145.278 10.4851L145.94 10.9046L145.656 10.389C146.126 10.2256 146.532 9.91816 146.816 9.51072L148.002 10.2616L147.252 8.9016C147.946 8.07044 148.881 7.56079 149.91 7.56079C151.143 7.56079 152.242 8.29305 152.951 9.43396C153.161 9.77533 153.457 10.0552 153.81 10.2453C154.163 10.4353 154.56 10.5287 154.961 10.516C154.983 10.5152 155.005 10.5148 155.028 10.5148C156.389 10.5148 157.493 12.056 157.493 13.9571C157.493 15.8582 156.389 17.3993 155.028 17.3993C154.728 17.3982 154.433 17.3246 154.169 17.1847C153.705 16.9598 153.198 16.8382 152.683 16.8281C152.168 16.8181 151.657 16.9199 151.185 17.1265C150.786 17.3053 150.354 17.3983 149.917 17.3993C149.48 17.4003 149.047 17.3094 148.648 17.1323C148.18 16.9297 147.673 16.8299 147.163 16.8397C146.653 16.8496 146.15 16.9688 145.69 17.1894C145.428 17.3263 145.137 17.3983 144.841 17.3993C143.479 17.3993 142.375 15.8582 142.375 13.9571C142.367 13.2237 142.544 12.5002 142.89 11.8531Z" fill="#F38630"/>
<path d="M43.4087 21.9629L44.6525 22.7503L43.8973 21.3795C44.1112 21.2092 44.3759 21.1148 44.6495 21.1115C44.6562 21.1115 44.6629 21.1116 44.6695 21.1117C44.7559 21.1131 44.8423 21.1067 44.9276 21.0927L45.3491 21.3595L45.1684 21.0315C45.4671 20.9276 45.7252 20.732 45.9059 20.4728L46.6603 20.9505L46.1837 20.0853C46.3844 19.8269 46.6402 19.6163 46.9326 19.4687C47.225 19.3212 47.5465 19.2405 47.874 19.2324C48.6586 19.2324 49.3575 19.6982 49.8087 20.424C49.942 20.6411 50.1306 20.8192 50.3552 20.9401C50.5798 21.061 50.8324 21.1204 51.0874 21.1123C51.1014 21.1118 51.1155 21.1115 51.1296 21.1115C51.9958 21.1115 52.6979 22.0919 52.6979 23.3012C52.6979 24.5106 51.9958 25.4909 51.1296 25.4909C50.9391 25.4902 50.7517 25.4434 50.5834 25.3544C50.2885 25.2114 49.9661 25.134 49.6383 25.1276C49.3106 25.1212 48.9854 25.1859 48.6852 25.3174C48.4315 25.4312 48.1567 25.4903 47.8787 25.4909C47.6006 25.4916 47.3255 25.4337 47.0714 25.3211C46.7735 25.1922 46.4513 25.1287 46.1267 25.135C45.8021 25.1412 45.4826 25.2171 45.19 25.3574C45.0231 25.4445 44.8378 25.4903 44.6495 25.4909C43.7834 25.4909 43.0812 24.5106 43.0812 23.3012C43.0762 22.8348 43.1888 22.3745 43.4087 21.9629Z" fill="#F38630"/>
<path d="M9.93445 26.184L11.1783 26.9715L10.4231 25.6007C10.637 25.4304 10.9017 25.336 11.1753 25.3327C11.1819 25.3327 11.1886 25.3328 11.1953 25.3329C11.2817 25.3343 11.3681 25.3279 11.4534 25.3139L11.8749 25.5807L11.6942 25.2527C11.9928 25.1487 12.2509 24.9532 12.4316 24.694L13.1861 25.1717L12.7094 24.3065C12.9102 24.0481 13.166 23.8375 13.4583 23.6899C13.7507 23.5424 14.0723 23.4617 14.3998 23.4536C15.1844 23.4536 15.8832 23.9194 16.3344 24.6452C16.4678 24.8623 16.6563 25.0404 16.8809 25.1613C17.1055 25.2822 17.3582 25.3416 17.6132 25.3335C17.6272 25.333 17.6413 25.3327 17.6554 25.3327C18.5215 25.3327 19.2237 26.3131 19.2237 27.5224C19.2237 28.7318 18.5215 29.7121 17.6554 29.7121C17.4649 29.7114 17.2775 29.6646 17.1091 29.5756C16.8143 29.4326 16.4918 29.3552 16.1641 29.3488C15.8364 29.3424 15.5111 29.4071 15.2109 29.5386C14.9573 29.6523 14.6825 29.7115 14.4044 29.7121C14.1264 29.7128 13.8513 29.6549 13.5971 29.5423C13.2992 29.4134 12.9771 29.3499 12.6525 29.3561C12.3279 29.3624 12.0084 29.4383 11.7157 29.5786C11.5489 29.6657 11.3635 29.7115 11.1752 29.7121C10.3091 29.7121 9.60697 28.7318 9.60697 27.5224C9.60193 27.0559 9.71455 26.5957 9.93445 26.184Z" fill="#F38630"/>
<path d="M54.8414 107.236L54.6241 107.453C54.6241 107.453 54.6966 109.838 54.769 110.344C54.8414 110.85 55.1311 111.718 54.9138 112.368C54.6966 113.019 54.6241 113.525 54.6966 113.597C54.769 113.67 54.6241 113.959 54.6241 113.959L55.2035 113.597L56.1449 111.429L55.7104 109.115L54.8414 107.236Z" fill="#F38630"/>
<path opacity="0.1" d="M54.8414 107.236L54.6241 107.453C54.6241 107.453 54.6966 109.838 54.769 110.344C54.8414 110.85 55.1311 111.718 54.9138 112.368C54.6966 113.019 54.6241 113.525 54.6966 113.597C54.769 113.67 54.6241 113.959 54.6241 113.959L55.2035 113.597L56.1449 111.429L55.7104 109.115L54.8414 107.236Z" fill="black"/>
<path d="M58.6784 129.718C58.6784 129.718 58.6784 128.923 58.5336 128.779C58.3888 128.634 58.1715 128.128 57.8819 128.128C57.5922 128.128 56.5784 128.417 56.5784 128.489C56.5866 128.715 56.5368 128.939 56.4335 129.14C56.2887 129.357 55.4921 130.224 56.2887 130.369C56.5535 130.412 56.8244 130.403 57.0855 130.341C57.3465 130.279 57.5926 130.165 57.8094 130.008C57.8819 129.935 58.1715 129.863 58.2439 129.935C58.3164 130.008 58.6784 129.718 58.6784 129.718Z" fill="#F38630"/>
<path d="M60.7067 128.417L61.1412 129.212C61.1412 129.212 61.286 129.935 61.5032 130.008H61.7205C61.7205 130.008 61.9377 130.803 62.4446 130.731C62.9515 130.658 63.5309 130.369 63.5309 130.225C63.5309 130.08 63.5309 129.646 63.3136 129.502C63.009 129.253 62.7189 128.988 62.4446 128.706L62.0826 128.345L60.7067 128.417Z" fill="#F38630"/>
<path d="M55.149 101.936C55.0096 102.007 54.8893 102.11 54.7983 102.237C54.7073 102.365 54.6481 102.512 54.6259 102.666C54.5855 103.182 55.0966 103.669 54.9322 104.16C54.8389 104.438 54.5481 104.619 54.4644 104.901C54.4204 105.126 54.4534 105.359 54.5582 105.562C54.6726 105.842 54.8118 106.11 54.9742 106.365C55.2794 106.843 55.6767 107.297 55.7583 107.859C55.7809 107.957 55.7799 108.059 55.7553 108.157C55.7308 108.254 55.6834 108.345 55.617 108.421C55.7639 108.31 55.9321 108.23 56.1111 108.186C56.8512 107.939 57.5388 107.557 58.1388 107.059C58.3567 106.906 58.5208 106.688 58.6076 106.436C58.7182 105.992 58.3805 105.548 58.4129 105.091C58.4336 104.799 58.6024 104.542 58.698 104.265C58.7811 103.989 58.8076 103.7 58.7758 103.414C58.7441 103.128 58.6548 102.851 58.5132 102.601C58.3961 102.358 58.2307 102.142 58.0272 101.965C57.8237 101.789 57.5863 101.655 57.3295 101.573C56.9345 101.481 56.5223 101.493 56.1333 101.607C55.7933 101.678 55.4629 101.788 55.149 101.936Z" fill="#2F2E41"/>
<path d="M55.5568 105.945C55.7162 105.649 55.9524 105.401 56.2405 105.228C56.5286 105.054 56.858 104.961 57.1945 104.958C58.3531 104.958 58.1359 104.886 58.1359 104.886L57.7738 106.332L57.0497 107.055L55.5568 105.945Z" fill="#F38630"/>
<path d="M55.8547 104.416C55.8547 104.416 56.5064 105.501 56.0719 105.935C55.6374 106.368 55.8547 106.802 55.9271 106.874C55.9995 106.947 58.0271 107.091 58.0271 107.091L58.0996 106.079L58.3168 105.212C58.3168 105.212 57.1582 104.995 57.303 104.489C57.4478 103.983 55.8547 104.416 55.8547 104.416Z" fill="#FBBEBE"/>
<path opacity="0.1" d="M55.8547 104.416C55.8547 104.416 56.5064 105.501 56.0719 105.935C55.6374 106.368 55.8547 106.802 55.9271 106.874C55.9995 106.947 58.0271 107.091 58.0271 107.091L58.0996 106.079L58.3168 105.212C58.3168 105.212 57.1582 104.995 57.303 104.489C57.4478 103.983 55.8547 104.416 55.8547 104.416Z" fill="black"/>
<path d="M60.9244 114.682C60.8469 114.93 60.75 115.172 60.6348 115.405C60.5623 115.477 60.3451 114.899 60.3451 114.899L60.5623 114.392L60.9244 114.682Z" fill="#FBBEBE"/>
<path d="M60.0911 111.393L60.3806 113.055H56.0358L56.253 111.393H60.0911Z" fill="#FBBEBE"/>
<path d="M56.6513 104.995C57.4112 104.995 58.0272 104.38 58.0272 103.621C58.0272 102.862 57.4112 102.247 56.6513 102.247C55.8914 102.247 55.2754 102.862 55.2754 103.621C55.2754 104.38 55.8914 104.995 56.6513 104.995Z" fill="#FBBEBE"/>
<path d="M56.9407 106.441C56.9407 106.441 56.1441 106.513 56.1441 106.368C56.1441 106.224 56.0717 105.79 55.9269 105.862C55.7821 105.935 54.8407 106.007 54.9131 106.224C54.9855 106.441 55.1303 106.874 54.9855 106.874C54.9229 106.887 54.8635 106.912 54.811 106.949C54.7586 106.985 54.714 107.032 54.6802 107.086C54.6463 107.14 54.6238 107.2 54.614 107.263C54.6043 107.327 54.6075 107.391 54.6234 107.453C54.6958 107.814 55.4924 109.983 55.4924 109.983C55.4924 109.983 55.5648 110.706 55.7821 110.923C55.8704 111.036 55.9184 111.176 55.9184 111.32C55.9184 111.464 55.8704 111.604 55.7821 111.718C55.6372 111.862 56.1441 112.007 56.3614 112.296C56.5786 112.585 58.2442 112.369 58.3166 112.296C58.389 112.224 60.127 112.224 60.2718 112.079C60.4166 111.935 60.1994 111.501 60.1994 111.501C60.1994 111.501 60.127 110.85 60.1994 110.634C60.2718 110.417 59.9097 106.874 59.6925 106.657C59.4753 106.441 60.3442 105.79 60.3442 105.79C60.3442 105.79 60.1994 105.212 59.258 105.139C59.258 105.139 58.9683 104.706 58.6787 104.706C58.389 104.706 57.7601 105.042 57.7601 105.042C57.7601 105.042 57.5924 106.007 57.3752 106.079C57.2035 106.163 57.0545 106.287 56.9407 106.441Z" fill="#F38630"/>
<path d="M59.8383 105.573L60.3452 105.79C60.3452 105.79 61.7935 110.272 61.6487 111.139C61.5038 112.007 61.1417 114.971 60.9245 114.971C60.7073 114.971 60.2728 114.537 60.2728 114.537V113.814C60.2728 113.67 60.0555 113.236 60.2003 113.236C60.3452 113.236 60.5624 113.091 60.4176 112.947C60.2728 112.802 60.1279 112.585 60.2728 112.368C60.4176 112.152 60.49 112.079 60.4176 111.862C60.3452 111.646 60.2003 111.429 60.3452 111.284C60.49 111.139 59.9831 110.417 59.9831 110.417L59.1865 107.236L59.3314 105.934L59.8383 105.573Z" fill="#F38630"/>
<path d="M60.1279 112.441C60.1279 112.441 57.3761 112.224 57.014 112.224C56.652 112.224 55.8396 111.883 55.8396 111.883C55.8396 111.883 53.7553 113.959 54.4795 117.356C55.2037 120.754 55.3485 124.947 55.783 126.176C56.0783 127.052 56.3201 127.945 56.5071 128.851C56.5071 128.851 57.2313 127.55 58.6072 128.995C58.6072 128.995 58.752 127.911 58.5348 127.477C58.3175 127.044 58.0279 124.73 58.0279 124.73C58.0279 124.73 57.5209 121.043 57.5209 120.61C57.5209 120.176 57.2313 116.489 57.3037 116.417C57.3761 116.344 57.7382 119.236 57.8106 119.742C57.883 120.248 58.1003 124.152 58.3175 124.586C58.5348 125.019 59.5486 128.489 60.1279 128.706C60.7072 128.923 62.6625 128.634 62.59 128.489C62.5176 128.345 62.0107 127.55 61.8659 127.333L61.2866 126.465L59.9107 121.766L60.5624 116.055C60.5624 116.055 60.9245 112.368 60.1279 112.441Z" fill="#2F2E41"/>
<path d="M57.4896 103.44H55.7252C55.6503 103.44 55.5779 103.414 55.521 103.365C55.4641 103.317 55.4264 103.249 55.4147 103.176L55.2394 102.067H57.9912L57.7452 103.233C57.7328 103.292 57.7007 103.345 57.6541 103.382C57.6076 103.42 57.5495 103.44 57.4896 103.44Z" fill="#2F2E41"/>
<path d="M148.426 103.098H151.21V107.068C150.844 107.068 150.482 106.996 150.144 106.857C149.807 106.717 149.5 106.512 149.241 106.254C148.983 105.996 148.778 105.69 148.638 105.353C148.498 105.015 148.426 104.654 148.426 104.289V103.098Z" fill="#2F2E41"/>
<path d="M146.801 126.357L146.602 127.35H147.994L148.06 126.357H146.801Z" fill="#A0616A"/>
<path d="M146.802 127.151C146.802 127.151 146.536 126.953 146.404 127.085C146.271 127.217 145.807 129.798 145.741 129.864C145.675 129.93 143.686 130.923 144.15 130.989C144.614 131.055 146.404 131.122 146.669 130.989C146.934 130.857 147.663 129.6 147.663 129.6V130.724H147.796C147.796 130.724 147.928 129.533 148.26 129.203C148.591 128.872 147.995 127.747 147.995 127.747C147.995 127.747 148.127 127.019 148.061 127.019C147.995 127.019 146.802 127.151 146.802 127.151Z" fill="#F38630"/>
<path d="M150.912 125.662L150.713 126.655H152.105L152.171 125.662H150.912Z" fill="#A0616A"/>
<path d="M149.321 119.211C149.321 119.211 149.983 121.196 150.116 121.394C150.249 121.593 150.713 125.299 150.713 125.299C150.713 125.299 150.249 126.026 150.845 126.093C151.442 126.159 151.177 125.96 151.574 126.093C151.682 126.133 151.798 126.149 151.913 126.137C152.028 126.126 152.139 126.088 152.237 126.026C152.237 126.026 152.436 125.629 152.303 125.497C152.171 125.365 152.436 121.924 152.436 121.924L152.038 120.733L151.707 116.961C151.707 116.961 152.104 115.968 151.906 115.704C151.707 115.439 151.044 115.902 151.044 115.902L149.321 119.211Z" fill="#2F2E41"/>
<path d="M148.458 114.049C148.458 114.049 148.259 116.167 148.127 116.299C147.994 116.431 146.536 120.137 146.536 120.137C146.536 120.137 146.138 120.6 146.271 122.321C146.403 124.041 146.735 125.762 146.735 125.762C146.735 125.762 146.47 126.754 146.934 126.754C147.398 126.754 147.597 126.489 147.795 126.688C147.994 126.886 148.127 126.688 148.193 126.556C148.259 126.423 148.524 125.96 148.524 125.828C148.524 125.695 148.79 122.321 148.79 122.321C148.79 122.321 150.977 117.49 151.176 117.226C151.375 116.961 152.502 115.505 152.435 114.513L148.458 114.049Z" fill="#2F2E41"/>
<path d="M150.116 105.116C150.885 105.116 151.508 104.494 151.508 103.727C151.508 102.959 150.885 102.337 150.116 102.337C149.347 102.337 148.724 102.959 148.724 103.727C148.724 104.494 149.347 105.116 150.116 105.116Z" fill="#A0616A"/>
<path d="M149.85 104.918C149.85 104.918 150.38 106.109 150.447 106.44C150.513 106.771 151.772 105.778 151.772 105.778C151.772 105.778 151.11 104.653 151.308 104.124L149.85 104.918Z" fill="#A0616A"/>
<path d="M151.971 105.579C151.971 105.579 150.977 104.852 150.248 106.374C149.519 107.895 149.32 107.829 149.32 107.829C149.32 107.829 148.458 108.094 148.723 109.947C148.988 111.8 147.862 114.248 148.326 114.38C148.79 114.513 153.098 115.24 153.098 114.711C153.098 114.182 152.7 112.13 153.032 110.873C153.363 109.616 152.568 105.249 151.971 105.579Z" fill="#3F3D56"/>
<path d="M150.977 105.91C150.977 105.91 150.181 107.101 150.248 108.028C150.314 108.954 150.314 109.55 150.314 109.55C150.314 109.55 148.988 115.902 149.253 115.902C149.519 115.902 150.314 116.233 150.38 116.034C150.447 115.836 152.104 111.8 152.104 111.8C152.104 111.8 152.501 107.763 152.037 106.837C151.573 105.91 150.977 105.91 150.977 105.91Z" fill="#3F3D56"/>
<path d="M149.386 115.704C149.386 115.704 148.723 117.954 149.651 118.02C150.579 118.086 150.049 115.836 150.049 115.836L149.386 115.704Z" fill="#A0616A"/>
<path d="M151.15 126.14C151.15 126.14 150.918 125.966 150.802 126.082C150.686 126.198 150.28 128.457 150.222 128.515C150.164 128.573 148.422 129.443 148.828 129.501C149.235 129.558 150.802 129.616 151.034 129.501C151.266 129.385 151.905 128.284 151.905 128.284V129.269H152.021C152.021 129.269 152.137 128.226 152.427 127.936C152.718 127.646 152.195 126.661 152.195 126.661C152.195 126.661 152.311 126.024 152.253 126.024C152.195 126.024 151.15 126.14 151.15 126.14Z" fill="#F38630"/>
<path d="M149.428 102.816C149.472 102.762 149.53 102.721 149.595 102.698C149.657 102.686 149.72 102.692 149.778 102.713C150.194 102.834 150.554 103.096 150.798 103.453C150.845 103.544 150.916 103.621 151.003 103.675C151.06 103.692 151.116 103.713 151.169 103.739C151.324 103.841 151.232 104.078 151.143 104.241C150.915 104.659 150.81 105.133 150.839 105.609C150.837 105.691 150.862 105.773 150.909 105.841C150.984 105.91 151.082 105.949 151.184 105.95C151.506 105.991 151.83 106.008 152.154 106.002C152.471 105.996 152.823 105.952 153.029 105.71C153.25 105.451 153.215 105.053 153.072 104.745C152.928 104.436 152.694 104.178 152.528 103.88C152.371 103.566 152.246 103.236 152.157 102.896C152.042 102.462 151.857 102.05 151.609 101.676C151.484 101.489 151.322 101.33 151.132 101.209C150.943 101.088 150.731 101.007 150.509 100.971C149.907 100.904 149.351 101.274 148.867 101.638C148.324 102.047 147.745 102.552 147.702 103.23C147.666 103.779 147.997 104.276 148.169 104.798C148.436 105.605 148.324 106.482 148.21 107.323C148.7 107.03 149.256 106.622 149.224 106.052C149.202 105.667 148.911 105.36 148.73 105.02C148.232 104.084 148.8 103.457 149.428 102.816Z" fill="#2F2E41"/>
<path d="M169.002 109.579C169.424 108.845 169.641 108.013 169.633 107.167C169.633 104.986 168.28 103.219 166.612 103.219C164.943 103.219 163.591 104.986 163.591 107.167C163.582 108.013 163.8 108.845 164.221 109.579C163.808 110.317 163.591 111.147 163.591 111.992C163.591 112.837 163.808 113.668 164.221 114.405C163.808 115.142 163.591 115.973 163.591 116.818C163.591 117.662 163.808 118.493 164.221 119.23C163.808 119.967 163.591 120.798 163.591 121.643C163.591 122.488 163.808 123.318 164.221 124.056C163.8 124.79 163.582 125.622 163.591 126.468C163.591 128.649 164.943 130.416 166.612 130.416C168.28 130.416 169.633 128.649 169.633 126.468C169.641 125.622 169.424 124.79 169.002 124.056C169.416 123.318 169.633 122.488 169.633 121.643C169.633 120.798 169.416 119.967 169.002 119.23C169.416 118.493 169.633 117.662 169.633 116.818C169.633 115.973 169.416 115.142 169.002 114.405C169.416 113.668 169.633 112.837 169.633 111.992C169.633 111.147 169.416 110.317 169.002 109.579Z" fill="#3F3D56"/>
<path d="M166.612 106.289C168.28 106.289 169.633 104.522 169.633 102.341C169.633 100.161 168.28 98.3932 166.612 98.3932C164.943 98.3932 163.591 100.161 163.591 102.341C163.591 104.522 164.943 106.289 166.612 106.289Z" fill="#3F3D56"/>
<path d="M166.612 101.464C168.28 101.464 169.633 99.696 169.633 97.5156C169.633 95.3351 168.28 93.5675 166.612 93.5675C164.943 93.5675 163.591 95.3351 163.591 97.5156C163.591 99.696 164.943 101.464 166.612 101.464Z" fill="#3F3D56"/>
<path d="M177.921 64.4939C178.334 63.9693 178.71 63.4169 179.046 62.8406L171.108 61.5391L179.693 61.6029C180.517 59.814 180.966 57.8762 181.014 55.9081C181.061 53.9399 180.706 51.9827 179.969 50.1564L168.451 56.1212L179.074 48.3263C178.079 46.6095 176.74 45.1157 175.141 43.9379C173.543 42.7602 171.718 41.9236 169.781 41.4805C167.845 41.0373 165.837 40.997 163.885 41.362C161.932 41.7271 160.075 42.4897 158.43 43.6023C156.785 44.715 155.387 46.1538 154.324 47.8293C153.26 49.5047 152.554 51.3808 152.248 53.3407C151.943 55.3006 152.045 57.3023 152.548 59.2211C153.051 61.14 153.945 62.9348 155.173 64.4939C154.53 65.3103 153.976 66.1936 153.523 67.1284L163.827 72.4725L152.84 68.7914C152.068 71.068 151.878 73.5007 152.285 75.8694C152.692 78.2381 153.685 80.468 155.173 82.3573C153.494 84.4882 152.45 87.0477 152.159 89.7432C151.869 92.4387 152.344 95.1614 153.53 97.6C154.717 100.039 156.567 102.095 158.869 103.533C161.17 104.972 163.831 105.735 166.547 105.735C169.263 105.735 171.923 104.972 174.225 103.533C176.527 102.095 178.377 100.039 179.564 97.6C180.75 95.1614 181.225 92.4387 180.935 89.7432C180.644 87.0477 179.6 84.4882 177.921 82.3573C179.927 79.8109 181.018 76.6653 181.018 73.4256C181.018 70.186 179.927 67.0403 177.921 64.4939V64.4939Z" fill="#F38630"/>
<path d="M152.076 73.4257C152.071 76.6662 153.162 79.8135 155.173 82.3575C153.494 84.4884 152.45 87.0479 152.159 89.7433C151.869 92.4388 152.344 95.1615 153.53 97.6001C154.717 100.039 156.567 102.095 158.869 103.533C161.17 104.972 163.831 105.735 166.547 105.735C169.263 105.735 171.923 104.972 174.225 103.533C176.527 102.095 178.377 100.039 179.564 97.6001C180.75 95.1615 181.225 92.4388 180.935 89.7433C180.644 87.0479 179.6 84.4884 177.921 82.3575C179.86 79.8995 152.076 71.8044 152.076 73.4257Z" fill="#F38630"/>
<path d="M177.921 64.4939C178.334 63.9693 178.71 63.4169 179.046 62.8406L171.108 61.5391L179.693 61.6029C180.517 59.814 180.966 57.8762 181.014 55.9081C181.061 53.9399 180.706 51.9827 179.969 50.1564L168.451 56.1212L179.074 48.3263C178.079 46.6095 176.74 45.1157 175.141 43.9379C173.543 42.7602 171.718 41.9236 169.781 41.4805C167.845 41.0373 165.837 40.997 163.885 41.362C161.932 41.7271 160.075 42.4897 158.43 43.6023C156.785 44.715 155.387 46.1538 154.324 47.8293C153.26 49.5047 152.554 51.3808 152.248 53.3407C151.943 55.3006 152.045 57.3023 152.548 59.2211C153.051 61.14 153.945 62.9348 155.173 64.4939C154.53 65.3103 153.976 66.1936 153.523 67.1284L163.827 72.4725L152.84 68.7914C152.068 71.068 151.878 73.5007 152.285 75.8694C152.692 78.2381 153.685 80.468 155.173 82.3573C153.494 84.4882 152.45 87.0477 152.159 89.7432C151.869 92.4387 152.344 95.1614 153.53 97.6C154.717 100.039 156.567 102.095 158.869 103.533C161.17 104.972 163.831 105.735 166.547 105.735C169.263 105.735 171.923 104.972 174.225 103.533C176.527 102.095 178.377 100.039 179.564 97.6C180.75 95.1614 181.225 92.4387 180.935 89.7432C180.644 87.0477 179.6 84.4882 177.921 82.3573C179.927 79.8109 181.018 76.6653 181.018 73.4256C181.018 70.186 179.927 67.0403 177.921 64.4939V64.4939Z" fill="#57B894"/>
<path opacity="0.1" d="M152.076 73.4257C152.071 76.6662 153.162 79.8135 155.173 82.3575C153.494 84.4884 152.45 87.0479 152.159 89.7433C151.869 92.4388 152.344 95.1615 153.53 97.6001C154.717 100.039 156.567 102.095 158.869 103.533C161.17 104.972 163.831 105.735 166.547 105.735C169.263 105.735 171.923 104.972 174.225 103.533C176.527 102.095 178.377 100.039 179.564 97.6001C180.75 95.1615 181.225 92.4388 180.935 89.7433C180.644 87.0479 179.6 84.4884 177.921 82.3575C179.86 79.8995 152.076 71.8044 152.076 73.4257Z" fill="black"/>
<path d="M16.9257 109.579C17.3469 108.845 17.5646 108.013 17.5562 107.167C17.5562 104.986 16.2036 103.219 14.5352 103.219C12.8667 103.219 11.5141 104.986 11.5141 107.167C11.5058 108.013 11.7235 108.845 12.1447 109.579C11.7313 110.317 11.5141 111.147 11.5141 111.992C11.5141 112.837 11.7313 113.668 12.1447 114.405C11.7313 115.142 11.5141 115.973 11.5141 116.818C11.5141 117.662 11.7313 118.493 12.1447 119.23C11.7313 119.967 11.5141 120.798 11.5141 121.643C11.5141 122.488 11.7313 123.318 12.1447 124.056C11.7235 124.79 11.5058 125.622 11.5141 126.468C11.5141 128.649 12.8667 130.416 14.5352 130.416C16.2037 130.416 17.5562 128.649 17.5562 126.468C17.5646 125.622 17.3469 124.79 16.9257 124.056C17.3391 123.318 17.5562 122.488 17.5562 121.643C17.5562 120.798 17.3391 119.967 16.9257 119.23C17.3391 118.493 17.5562 117.662 17.5562 116.818C17.5562 115.973 17.3391 115.142 16.9257 114.405C17.3391 113.668 17.5562 112.837 17.5562 111.992C17.5562 111.147 17.3391 110.317 16.9257 109.579Z" fill="#3F3D56"/>
<path d="M14.5349 106.289C16.2034 106.289 17.556 104.522 17.556 102.341C17.556 100.161 16.2034 98.3932 14.5349 98.3932C12.8665 98.3932 11.5139 100.161 11.5139 102.341C11.5139 104.522 12.8665 106.289 14.5349 106.289Z" fill="#3F3D56"/>
<path d="M14.5349 101.464C16.2034 101.464 17.556 99.696 17.556 97.5156C17.556 95.3351 16.2034 93.5675 14.5349 93.5675C12.8665 93.5675 11.5139 95.3351 11.5139 97.5156C11.5139 99.696 12.8665 101.464 14.5349 101.464Z" fill="#3F3D56"/>
<path d="M25.8447 64.4939C26.2575 63.9693 26.6334 63.4169 26.9698 62.8406L19.0318 61.5391L27.617 61.6029C28.4405 59.814 28.8898 57.8762 28.9374 55.9081C28.9849 53.9399 28.6296 51.9827 27.8933 50.1564L16.3753 56.1212L26.9976 48.3263C26.0024 46.6095 24.6638 45.1157 23.0651 43.9379C21.4664 42.7602 19.6419 41.9236 17.7053 41.4805C15.7686 41.0373 13.7613 40.997 11.8084 41.362C9.85542 41.7271 7.9987 42.4897 6.35386 43.6023C4.70902 44.715 3.3113 46.1538 2.24778 47.8293C1.18426 49.5047 0.477712 51.3808 0.17216 53.3407C-0.133393 55.3006 -0.0314068 57.3023 0.471765 59.2211C0.974937 61.14 1.86851 62.9348 3.09683 64.4939C2.45349 65.3103 1.90018 66.1936 1.44649 67.1284L11.7506 72.4725L0.763545 68.7914C-0.0079103 71.068 -0.198562 73.5007 0.208843 75.8694C0.616247 78.2381 1.60885 80.468 3.09683 82.3573C1.41792 84.4882 0.373513 87.0477 0.0830306 89.7432C-0.207452 92.4387 0.267709 95.1614 1.45419 97.6C2.64067 100.039 4.49058 102.095 6.79242 103.533C9.09426 104.972 11.7551 105.735 14.4708 105.735C17.1864 105.735 19.8473 104.972 22.1492 103.533C24.451 102.095 26.3009 100.039 27.4874 97.6C28.6739 95.1614 29.149 92.4387 28.8585 89.7432C28.5681 87.0477 27.5237 84.4882 25.8447 82.3573C27.8509 79.8109 28.9416 76.6653 28.9416 73.4256C28.9416 70.186 27.8509 67.0403 25.8447 64.4939L25.8447 64.4939Z" fill="#F38630"/>
<path d="M1.70817e-05 73.4257C-0.00497929 76.6662 1.08623 79.8135 3.09684 82.3575C1.41792 84.4884 0.373518 87.0479 0.0830361 89.7433C-0.207446 92.4388 0.267715 95.1615 1.45419 97.6001C2.64067 100.039 4.49059 102.095 6.79242 103.533C9.09426 104.972 11.7551 105.735 14.4708 105.735C17.1865 105.735 19.8473 104.972 22.1492 103.533C24.451 102.095 26.3009 100.039 27.4874 97.6001C28.6739 95.1615 29.149 92.4388 28.8585 89.7433C28.5681 87.0479 27.5237 84.4884 25.8447 82.3575C27.7843 79.8995 1.70817e-05 71.8044 1.70817e-05 73.4257Z" fill="#F38630"/>
<path d="M25.8447 64.4939C26.2575 63.9693 26.6334 63.4169 26.9698 62.8406L19.0318 61.5391L27.617 61.6029C28.4405 59.814 28.8898 57.8762 28.9374 55.9081C28.9849 53.9399 28.6296 51.9827 27.8933 50.1564L16.3753 56.1212L26.9976 48.3263C26.0024 46.6095 24.6638 45.1157 23.0651 43.9379C21.4664 42.7602 19.6419 41.9236 17.7053 41.4805C15.7686 41.0373 13.7613 40.997 11.8084 41.362C9.85542 41.7271 7.9987 42.4897 6.35386 43.6023C4.70902 44.715 3.3113 46.1538 2.24778 47.8293C1.18426 49.5047 0.477712 51.3808 0.17216 53.3407C-0.133393 55.3006 -0.0314068 57.3023 0.471765 59.2211C0.974937 61.14 1.86851 62.9348 3.09683 64.4939C2.45349 65.3103 1.90018 66.1936 1.44649 67.1284L11.7506 72.4725L0.763545 68.7914C-0.0079103 71.068 -0.198562 73.5007 0.208843 75.8694C0.616247 78.2381 1.60885 80.468 3.09683 82.3573C1.41792 84.4882 0.373513 87.0477 0.0830306 89.7432C-0.207452 92.4387 0.267709 95.1614 1.45419 97.6C2.64067 100.039 4.49058 102.095 6.79242 103.533C9.09426 104.972 11.7551 105.735 14.4708 105.735C17.1864 105.735 19.8473 104.972 22.1492 103.533C24.451 102.095 26.3009 100.039 27.4874 97.6C28.6739 95.1614 29.149 92.4387 28.8585 89.7432C28.5681 87.0477 27.5237 84.4882 25.8447 82.3573C27.8509 79.8109 28.9416 76.6653 28.9416 73.4256C28.9416 70.186 27.8509 67.0403 25.8447 64.4939L25.8447 64.4939Z" fill="#57B894"/>
<path opacity="0.1" d="M1.70817e-05 73.4257C-0.00497929 76.6662 1.08623 79.8135 3.09684 82.3575C1.41792 84.4884 0.373518 87.0479 0.0830361 89.7433C-0.207446 92.4388 0.267715 95.1615 1.45419 97.6001C2.64067 100.039 4.49059 102.095 6.79242 103.533C9.09426 104.972 11.7551 105.735 14.4708 105.735C17.1865 105.735 19.8473 104.972 22.1492 103.533C24.451 102.095 26.3009 100.039 27.4874 97.6001C28.6739 95.1615 29.149 92.4388 28.8585 89.7433C28.5681 87.0479 27.5237 84.4884 25.8447 82.3575C27.7843 79.8995 1.70817e-05 71.8044 1.70817e-05 73.4257Z" fill="black"/>
<path d="M104.285 63.7012L97.1048 70.8691L93.7028 67.4731L92.3784 68.7952L97.1003 73.5091L105.61 65.0233L104.285 63.7012Z" fill="#57B894"/>
<path d="M127.142 47.3518L119.961 54.5197L116.559 51.1237L115.235 52.4459L119.957 57.1597L128.466 48.674L127.142 47.3518Z" fill="#57B894"/>
</g>
<defs>
<clipPath id="clip0_443_1227">
<rect width="181.198" height="136.905" fill="white"/>
</clipPath>
</defs>
</svg>
