<svg width="113" height="105" viewBox="0 0 113 105" fill="none" xmlns="http://www.w3.org/2000/svg">
<path d="M111.772 102.558L111.772 41.5116H97.0327V63.4884V64.0988H107.473V65.3198L73.0816 99.5058L38.6903 65.3198V64.0988H48.5164V48.2267V41.5116H33.7773L33.7773 102.558V103.779L111.772 103.779V102.558Z" fill="#F38630"/>
<path d="M78.5199 31.786V62.2659H72.4499H66.3799V51.318V40.3701H70.6977H75.0156V39.2814V38.1927L57.7755 21.0573L40.5355 3.92202L22.701 21.0254L4.86646 38.1288L4.83047 39.2495L4.79449 40.3701L9.74279 40.3701H14.6911V51.318V62.2659H7.99532H1.29956V31.786L1.29956 1.30615H39.9097L78.5199 1.30615L78.5199 31.786ZM67.5063 52.4999V53.8062H68.1947H68.883V52.4999V51.1936H68.1947H67.5063V52.4999Z" fill="#69D2E7"/>
<path d="M45.9113 52.4999V53.8062H46.5997H47.288V52.4999V51.1936H46.5997H45.9113V52.4999Z" fill="#69D2E7"/>
</svg>
